<svg xmlns="http://www.w3.org/2000/svg" width="76.592" height="68.109" viewBox="0 0 76.592 68.109">
  <g id="Group_51378" data-name="Group 51378" transform="translate(21227 20241)">
    <path id="Path_24629" data-name="Path 24629" d="M241.023-1021.049c-.392.381-1.33,1.278-2.062,1.99s-2.381,2.289-3.66,3.5-2.876,2.752-3.556,3.4-1.783,1.721-2.464,2.371-1.773,1.7-2.433,2.34-1.484,1.423-1.856,1.763l-.67.619-.031-4.216-.021-4.216h-9.793v17.9l-.845.825c-.474.443-1.9,1.814-3.175,3.031-2.319,2.216-3.989,3.824-5.927,5.7l-1.031,1h5.824V-953.6h64.944v-15.071l-.9.8c-.505.454-.928.835-.959.876-.165.186-2.515,2.062-3.608,2.876a136.593,136.593,0,0,1-13.813,8.638c-.258.134-.618.351-.814.464l-.35.216.072-.412c.381-2.247.01-3.866-1.2-5.1a21.043,21.043,0,0,0-2.247-1.66,48.134,48.134,0,0,1-4.278-3.082A31.358,31.358,0,0,1,240-970.919a10.963,10.963,0,0,1-1.814-5.4,10.723,10.723,0,0,1,3.093-8.608,10.316,10.316,0,0,1,7.35-3.278,9.815,9.815,0,0,1,3.732.454,11.161,11.161,0,0,1,5.309,3.69l.433.557.361-.484a11.538,11.538,0,0,1,3.556-3.02,10.683,10.683,0,0,1,5.587-1.2,10.5,10.5,0,0,1,6.618,2.608l.649.557h5.216l-1.134-1.113c-.629-.608-1.67-1.608-2.319-2.237s-1.814-1.732-2.577-2.474-2.484-2.381-3.814-3.66c-2.979-2.855-4.721-4.525-5-4.793-.113-.113-.691-.67-1.289-1.237s-1.587-1.505-2.216-2.113-1.691-1.618-2.371-2.268c-1.289-1.227-2.876-2.742-5.154-4.938-.732-.711-1.825-1.752-2.422-2.319s-1.711-1.639-2.474-2.381c-2.649-2.556-7.443-7.113-7.5-7.133A3.859,3.859,0,0,0,241.023-1021.049Z" transform="translate(-21430.5 -19219.291)" fill="#fff"/>
    <path id="Path_24630" data-name="Path 24630" d="M575.494-655.672a9.427,9.427,0,0,0-5.309,3.031A9.058,9.058,0,0,0,568-646.682a9.072,9.072,0,0,0,1.7,5.536c1.175,1.649,4.8,4.721,8.566,7.237a7.621,7.621,0,0,1,2.5,2.34,6.781,6.781,0,0,1,.732,2.649,1.06,1.06,0,0,0,.1.557c.278.175,8.051-4.515,11.092-6.69a37.786,37.786,0,0,0,6.907-6.1,9.966,9.966,0,0,0,1.433-3.154,10.61,10.61,0,0,0,.134-2.629,6.25,6.25,0,0,0-.361-2.742,9.1,9.1,0,0,0-4.6-5.175,9.088,9.088,0,0,0-6.845-.505,9.238,9.238,0,0,0-4.134,2.835l-.588.722-.258-.34a13.13,13.13,0,0,0-2.072-2.01A9.088,9.088,0,0,0,575.494-655.672Zm1.907,9.834a2.768,2.768,0,0,1,1.546,1.33,2.774,2.774,0,0,1-.649,3.34,2.694,2.694,0,0,1-4.4-2.247A2.724,2.724,0,0,1,577.4-645.837Zm7.917.052a2.728,2.728,0,0,1,.907,4.546,2.375,2.375,0,0,1-1.794.691,2.643,2.643,0,0,1-2.691-2.917A2.686,2.686,0,0,1,585.318-645.786Zm7.845,0a2.646,2.646,0,0,1,1.763,2.546,2.674,2.674,0,0,1-4.546,1.928A2.7,2.7,0,0,1,593.163-645.786Z" transform="translate(-21757.426 -19547.465)" fill="#fff"/>
  </g>
</svg>
