<svg xmlns="http://www.w3.org/2000/svg" width="252.727" height="287.529" viewBox="0 0 252.727 287.529">
  <g id="_4136671" data-name="4136671" transform="translate(-31.346 -22.014)">
    <g id="Character_3" data-name="Character 3" transform="translate(137.762 22.014)">
      <g id="Group_51450" data-name="Group 51450" transform="translate(0)">
        <g id="Group_51430" data-name="Group 51430" transform="translate(0 84.439)">
          <path id="Path_24801" data-name="Path 24801" d="M228.164,143.558,204.55,177.038l7.927,3.884s18.355-17.007,21.579-22.225,5.384-8.9,5.384-8.9S234.729,143.378,228.164,143.558Z" transform="translate(-190.634 -143.555)" fill="#8e6055"/>
          <path id="Path_24802" data-name="Path 24802" d="M198.436,191.747l-6.7.4-7.218,6.7s1.41,1.57,2.98.625,5.808-3.717,5.808-3.717l3.606.729-5.44,3.939s-.8,2.313.611,2.14,6.69-2.765,9.358-3.231,4.912-3.71,4.912-3.71l-7.927-3.884Z" transform="translate(-184.52 -158.264)" fill="#8e6055"/>
        </g>
        <path id="Path_24803" data-name="Path 24803" d="M291.87,88.306l5.843-2.466,17.764,1.181,5.711,3.5L303.271,111.5Z" transform="translate(-217.29 -41.498)" fill="#8e6055"/>
        <g id="Group_51433" data-name="Group 51433" transform="translate(71.481)">
          <path id="Path_24804" data-name="Path 24804" d="M291.1,32.188a10.633,10.633,0,0,1,5.079-6.433,13.388,13.388,0,0,1,9-1.084,28.39,28.39,0,0,1,8.511,3.515,13.885,13.885,0,0,1,4.064,3.175c1.966,2.473,2.237,5.843,2.425,9,.153,2.55.285,5.217-.792,7.538a7.853,7.853,0,0,1-5.28,4.273" transform="translate(-288.536 -22.728)" fill="#263238"/>
          <path id="Path_24805" data-name="Path 24805" d="M326.789,44.25a16.846,16.846,0,0,0,4.057-12.526,5.928,5.928,0,0,0-1.716-4.092c-.591-.5-1.334-.792-1.938-1.271-1.1-.882-1.647-2.307-2.689-3.251a4.282,4.282,0,0,0-6.982,1.994c-.549,1.917.271,3.925,1.077,5.752q1.876,4.221,3.745,8.441a11.222,11.222,0,0,0,1.716,2.994,3.818,3.818,0,0,0,3.043,1.4" transform="translate(-296.547 -22.014)" fill="#263238"/>
          <path id="Path_24806" data-name="Path 24806" d="M291.252,31.964a14.523,14.523,0,0,0-1.278,18.084,122.378,122.378,0,0,1,6.489-20.238" transform="translate(-287.41 -24.394)" fill="#263238"/>
          <path id="Path_24807" data-name="Path 24807" d="M288.927,41.765c.327-5.016,3.668-11.171,8.663-10.629l11.567,2.953a8.577,8.577,0,0,1,6.454,7.9c.014.188.035-.042.028.1l-.834,30.3a9.052,9.052,0,0,1-9.24,8.781h0a9.049,9.049,0,0,1-8.851-9.032V66.838S290.3,65.761,289,57.389c-.653-4.161-.431-10.046-.063-15.618Z" transform="translate(-287.767 -24.788)" fill="#8e6055"/>
          <path id="Path_24808" data-name="Path 24808" d="M303.475,42.678a8.9,8.9,0,0,1-2.425.5,9.109,9.109,0,0,1-2.48,0c0-.063,1.1-.063,2.459-.2s2.432-.354,2.445-.292Z" transform="translate(-290.816 -28.321)" fill="#684b46"/>
          <path id="Path_24809" data-name="Path 24809" d="M301.606,42.241a5.926,5.926,0,0,1-3.036.16,11.287,11.287,0,0,1,1.515-.09,9.634,9.634,0,0,1,1.515-.069Z" transform="translate(-290.816 -28.182)" fill="#684b46"/>
          <path id="Path_24810" data-name="Path 24810" d="M307.443,65.706c-.056.007-.125-.333-.465-.549a1.918,1.918,0,0,0-.688-.215c-.007-.021.069-.083.222-.1a.921.921,0,0,1,.938.625c.042.153.014.25-.007.25Z" transform="translate(-293.173 -35.085)" fill="#684b46"/>
          <path id="Path_24811" data-name="Path 24811" d="M293.95,54.335a1.07,1.07,0,0,0,1.035,1.084,1.02,1.02,0,0,0,1.1-.966,1.069,1.069,0,0,0-1.028-1.084,1.026,1.026,0,0,0-1.112.966Z" transform="translate(-289.406 -31.585)" fill="#263238"/>
          <path id="Path_24812" data-name="Path 24812" d="M291.189,51.069c.132.139.945-.459,2.1-.452,1.153-.014,2,.584,2.126.445.063-.063-.076-.313-.445-.584a2.928,2.928,0,0,0-1.7-.528,2.8,2.8,0,0,0-1.674.535c-.354.271-.479.521-.41.591Z" transform="translate(-288.555 -30.542)" fill="#263238"/>
          <path id="Path_24813" data-name="Path 24813" d="M310.56,54.995a1.07,1.07,0,0,0,1.035,1.084,1.02,1.02,0,0,0,1.1-.966,1.069,1.069,0,0,0-1.028-1.084A1.026,1.026,0,0,0,310.56,54.995Z" transform="translate(-294.476 -31.787)" fill="#263238"/>
          <path id="Path_24814" data-name="Path 24814" d="M307.522,51.419c.132.139.945-.459,2.105-.452,1.153-.014,2,.584,2.126.445.063-.063-.069-.313-.445-.584a2.928,2.928,0,0,0-1.7-.528,2.8,2.8,0,0,0-1.674.535c-.354.271-.479.521-.41.591Z" transform="translate(-293.543 -30.649)" fill="#263238"/>
          <path id="Path_24815" data-name="Path 24815" d="M300.178,59.992a7.615,7.615,0,0,0-1.876-.34c-.292-.028-.577-.09-.625-.292a1.5,1.5,0,0,1,.2-.875c.278-.716.57-1.459.875-2.244a39.6,39.6,0,0,0,1.973-5.871,37.953,37.953,0,0,0-2.439,5.7c-.292.785-.577,1.535-.841,2.258a1.687,1.687,0,0,0-.153,1.153.714.714,0,0,0,.486.431,2,2,0,0,0,.5.069,7.276,7.276,0,0,0,1.9,0Z" transform="translate(-290.41 -30.67)" fill="#263238"/>
          <path id="Path_24816" data-name="Path 24816" d="M311.375,78.25S308.652,84,300.28,83.2V81.23a21.1,21.1,0,0,0,11.095-2.973Z" transform="translate(-291.338 -39.181)" fill="#684b46"/>
          <path id="Path_24817" data-name="Path 24817" d="M302.124,67.886a2.091,2.091,0,0,1,1.869-.771,1.912,1.912,0,0,1,1.313.709,1.2,1.2,0,0,1,.09,1.376,1.407,1.407,0,0,1-1.515.382,4.451,4.451,0,0,1-1.473-.882,1.172,1.172,0,0,1-.327-.34.4.4,0,0,1,0-.431" transform="translate(-291.87 -35.778)" fill="#684b46"/>
          <path id="Path_24818" data-name="Path 24818" d="M304.742,65.38c-.188-.014-.195,1.244-1.264,2.126s-2.411.743-2.418.924c-.021.076.3.243.861.264a3.1,3.1,0,0,0,2.022-.7,2.71,2.71,0,0,0,.98-1.785c.049-.521-.09-.834-.174-.827Z" transform="translate(-291.576 -35.252)" fill="#263238"/>
          <path id="Path_24819" data-name="Path 24819" d="M307.127,46.661c.111.313,1.264.167,2.619.333,1.355.139,2.445.535,2.626.257.083-.132-.111-.431-.549-.736a4.578,4.578,0,0,0-3.995-.452c-.5.2-.75.445-.7.6Z" transform="translate(-293.427 -29.274)" fill="#263238"/>
          <path id="Path_24820" data-name="Path 24820" d="M291.8,46.227c.2.264,1-.007,1.952-.021.959-.042,1.765.181,1.952-.09.083-.132-.042-.4-.4-.646a2.675,2.675,0,0,0-1.591-.431,2.743,2.743,0,0,0-1.563.521c-.34.271-.452.535-.361.667Z" transform="translate(-288.74 -29.042)" fill="#263238"/>
          <path id="Path_24821" data-name="Path 24821" d="M292.287,32.7a3.684,3.684,0,0,1,3.251-2.084,7.1,7.1,0,0,1,3.856,1.125c4.981,2.876,7.781,8.6,12.707,11.581a20.234,20.234,0,0,1,3.578,2.265A3.55,3.55,0,0,1,316.8,49.4a11.824,11.824,0,0,0,1.709-2.89,3.945,3.945,0,0,0-.139-3.258c-.424-.736-1.181-1.3-1.383-2.126a11.013,11.013,0,0,1,.076-2.237,4.878,4.878,0,0,0-.764-2.133,21.712,21.712,0,0,0-8-8.413,14.154,14.154,0,0,0-7.343-1.9,10.841,10.841,0,0,0-6.982,2.772c-1.1,1.028-2.258,2.091-1.688,3.481" transform="translate(-288.855 -23.365)" fill="#263238"/>
          <path id="Path_24822" data-name="Path 24822" d="M316.7,49.751s.1-.111.264-.34a3.655,3.655,0,0,0,.542-1.091,6.188,6.188,0,0,0-.459-4.377c-.375-.875-.91-1.779-1.459-2.765a32.525,32.525,0,0,1-1.535-3.265,23.266,23.266,0,0,0-1.751-3.543,13.753,13.753,0,0,0-2.772-3.182,14.722,14.722,0,0,0-7.343-3.383,10.838,10.838,0,0,0-6.517.882,7.116,7.116,0,0,0-3.133,3.126,5.913,5.913,0,0,0-.431,1.146c-.069.271-.1.417-.1.417a.709.709,0,0,1,.014-.111c.014-.069.021-.181.056-.32a5.726,5.726,0,0,1,.4-1.174,7.149,7.149,0,0,1,3.14-3.224,10.928,10.928,0,0,1,6.614-.938,14.771,14.771,0,0,1,7.448,3.411,14.285,14.285,0,0,1,2.807,3.231,23.611,23.611,0,0,1,1.758,3.578,32.405,32.405,0,0,0,1.508,3.258c.535.987,1.07,1.9,1.438,2.793a6.233,6.233,0,0,1,.4,4.46A3.412,3.412,0,0,1,317,49.431a2.2,2.2,0,0,1-.292.32Z" transform="translate(-288.811 -23.68)" fill="#455a64"/>
          <path id="Path_24823" data-name="Path 24823" d="M328.2,45.06a2.045,2.045,0,0,1,0-.236c.007-.181.014-.4.028-.681.021-.591.049-1.445.014-2.508a21.952,21.952,0,0,0-.4-3.682,9.85,9.85,0,0,0-1.792-4.1,22.82,22.82,0,0,0-3.21-3.2c-1.056-.917-2.043-1.7-2.9-2.32s-1.584-1.07-2.091-1.376c-.243-.139-.438-.25-.591-.34a1.073,1.073,0,0,1-.2-.132s.076.028.222.09.347.167.611.306a22.835,22.835,0,0,1,2.14,1.327,36.705,36.705,0,0,1,2.939,2.293,22.47,22.47,0,0,1,3.251,3.217,9.843,9.843,0,0,1,1.813,4.182,20.674,20.674,0,0,1,.368,3.717c.014,1.063-.035,1.924-.083,2.515-.021.3-.049.528-.069.681a1.155,1.155,0,0,1-.042.236Z" transform="translate(-296.458 -23.38)" fill="#455a64"/>
          <path id="Path_24824" data-name="Path 24824" d="M327.647,24.13a5.55,5.55,0,0,1,.229.952,10.941,10.941,0,0,1,.111,2.355,11.113,11.113,0,0,1-.389,2.327,3.668,3.668,0,0,1-.34.917,24.325,24.325,0,0,0,.528-3.251,22.916,22.916,0,0,0-.139-3.293Z" transform="translate(-299.572 -22.66)" fill="#455a64"/>
          <path id="Path_24825" data-name="Path 24825" d="M334.574,33.05a2.27,2.27,0,0,1-.285.695,4.5,4.5,0,0,1-1.216,1.348,4.453,4.453,0,0,1-1.653.757,1.883,1.883,0,0,1-.75.063,5.874,5.874,0,0,1,.716-.2,5.2,5.2,0,0,0,2.786-2.043A7.045,7.045,0,0,1,334.574,33.05Z" transform="translate(-300.615 -25.383)" fill="#455a64"/>
          <path id="Path_24826" data-name="Path 24826" d="M335.424,41.1a4.127,4.127,0,0,1-3.314-.1c.021-.069.743.153,1.653.188s1.647-.167,1.66-.1Z" transform="translate(-301.055 -27.807)" fill="#455a64"/>
          <path id="Path_24827" data-name="Path 24827" d="M320.617,52.952c-.2-.1-.1-.653-.076-1.549a4.361,4.361,0,0,0-.174-1.466,1.883,1.883,0,0,0-.153-.34c-.028-.056-.069-.1-.1-.146a2.141,2.141,0,0,0-.139-.195,7.424,7.424,0,0,0-.688-.806,2.09,2.09,0,0,0-.723-.507c-.09-.028-.111,0-.069.014-.1.021-.195.035-.292.056s-.208.049-.313.076a5.494,5.494,0,0,0-1.188.452c-.195.1-.4.215-.6.34l-.153.1-.257.153a4.143,4.143,0,0,1-.535.25,5.312,5.312,0,0,1-2.355.4,3.9,3.9,0,0,1-1.41-.354l-.181-.09-.146-.083c-.1-.063-.195-.111-.285-.181a5.072,5.072,0,0,1-.521-.417,6.8,6.8,0,0,1-1.431-1.952c-.34-.66-.591-1.313-.834-1.9a21.849,21.849,0,0,0-3.592-5.9,23.922,23.922,0,0,0-4.2-3.891,13.569,13.569,0,0,0-3.293-1.89c-.834-.313-1.376-.4-1.41-.618-.035-.195.5-.542,1.591-.57a9.211,9.211,0,0,1,4.245,1.216,19.323,19.323,0,0,1,5.169,3.842,20.785,20.785,0,0,1,4.342,6.642c.257.632.479,1.2.723,1.688a4.1,4.1,0,0,0,.757,1.132,1.163,1.163,0,0,0,.2.174.9.9,0,0,0,.1.069l.049.035.021.014a.935.935,0,0,0,.34.1,2.633,2.633,0,0,0,1.1-.118c.09-.028.174-.063.25-.09l.111-.056.208-.111c.285-.146.577-.285.875-.41a7.781,7.781,0,0,1,1.82-.486c.146-.021.292-.035.431-.049l.208-.014.236-.014a2.518,2.518,0,0,1,1.327.313,4.263,4.263,0,0,1,1.341,1.237,7.9,7.9,0,0,1,.723,1.223c.049.1.09.188.139.313s.1.243.125.361a3.767,3.767,0,0,1,.125.695,4.37,4.37,0,0,1-.354,2.036c-.438.993-.917,1.369-1.1,1.278Z" transform="translate(-289.882 -25.04)" fill="#263238"/>
          <g id="Group_51431" data-name="Group 51431" transform="translate(26.699 22.813)">
            <path id="Path_24828" data-name="Path 24828" d="M325.84,55.3c.09-.243,4.453-1.813,4.509,2.821.056,4.509-4.488,3.62-4.5,3.488s-.007-6.315-.007-6.315Z" transform="translate(-325.84 -54.851)" fill="#8e6055"/>
            <path id="Path_24829" data-name="Path 24829" d="M327.835,60.537a1.079,1.079,0,0,0,.215.111.761.761,0,0,0,.584,0,1.946,1.946,0,0,0,.882-1.751,2.617,2.617,0,0,0-.229-1.119.907.907,0,0,0-.6-.6.388.388,0,0,0-.458.222c-.063.125-.028.215-.056.222s-.1-.076-.063-.264a.53.53,0,0,1,.174-.285.588.588,0,0,1,.431-.118,1.107,1.107,0,0,1,.827.688,2.7,2.7,0,0,1,.285,1.251,2.046,2.046,0,0,1-1.125,1.959.859.859,0,0,1-.723-.111c-.139-.111-.167-.208-.153-.222Z" transform="translate(-326.446 -55.494)" fill="#684b46"/>
          </g>
          <path id="Path_24830" data-name="Path 24830" d="M319.427,48.156a1.616,1.616,0,0,0-.188-.306,1.78,1.78,0,0,0-.806-.6,3.2,3.2,0,0,0-1.591-.139,7.467,7.467,0,0,0-2.022.729,5.369,5.369,0,0,1-2.564.653,4.112,4.112,0,0,1-2.661-1.424,8.371,8.371,0,0,1-1.6-2.953c-.375-1.1-.709-2.251-1.167-3.39a17.494,17.494,0,0,0-3.55-5.857,9.939,9.939,0,0,0-4.773-2.814,8.827,8.827,0,0,0-2.133-.271,7.369,7.369,0,0,0-1.619.195c-.868.215-1.313.459-1.327.431a.809.809,0,0,1,.076-.049c.069-.035.146-.069.243-.118a5.752,5.752,0,0,1,.98-.347,7.614,7.614,0,0,1,1.633-.229,9.015,9.015,0,0,1,2.174.243,10.04,10.04,0,0,1,4.87,2.828,17.486,17.486,0,0,1,3.606,5.912c.459,1.146.8,2.307,1.167,3.4a8.274,8.274,0,0,0,1.542,2.9,3.963,3.963,0,0,0,2.536,1.383,5.237,5.237,0,0,0,2.494-.611,7.591,7.591,0,0,1,2.063-.709,3.193,3.193,0,0,1,1.64.181,1.729,1.729,0,0,1,.813.646,1.007,1.007,0,0,1,.125.243c.021.056.035.083.028.09Z" transform="translate(-289.247 -24.961)" fill="#455a64"/>
          <path id="Path_24831" data-name="Path 24831" d="M317.772,45.494s-.1-.049-.271-.153-.438-.257-.757-.479a15.42,15.42,0,0,1-2.432-2.216,43.687,43.687,0,0,1-2.973-3.863,35.1,35.1,0,0,0-3.717-4.627,14.15,14.15,0,0,0-2.4-1.9,11.314,11.314,0,0,0-2.591-1.174,12.822,12.822,0,0,0-4.773-.584,12.4,12.4,0,0,0-3.2.625,8.358,8.358,0,0,0-.834.313,1.57,1.57,0,0,1-.292.1,2.61,2.61,0,0,1,.278-.139,8.3,8.3,0,0,1,.827-.347,11.708,11.708,0,0,1,3.217-.695,12.958,12.958,0,0,1,4.842.549,11.812,11.812,0,0,1,2.64,1.181,14.066,14.066,0,0,1,2.439,1.924,34.184,34.184,0,0,1,3.731,4.669,46.138,46.138,0,0,0,2.932,3.877,16.758,16.758,0,0,0,2.369,2.244c.306.236.563.389.729.507a1.616,1.616,0,0,1,.25.188Z" transform="translate(-289.281 -24.551)" fill="#455a64"/>
          <g id="Group_51432" data-name="Group 51432" transform="translate(27.799 28.606)">
            <path id="Path_24832" data-name="Path 24832" d="M328.253,63.244a.886.886,0,0,1,.431,1.716.886.886,0,0,1-.646-1.647" transform="translate(-327.457 -63.202)" fill="#fff"/>
            <path id="Path_24833" data-name="Path 24833" d="M328.012,63.3a.93.93,0,0,0-.4.6.769.769,0,0,0,.174.709.79.79,0,0,0,1.389-.438.771.771,0,0,0-.264-.681,1.2,1.2,0,0,0-.681-.257c0-.014.069-.049.208-.049a.974.974,0,0,1,.563.195.9.9,0,0,1,.361.813.967.967,0,0,1-1.716.542.942.942,0,0,1,.174-1.362c.118-.076.195-.09.2-.083Z" transform="translate(-327.424 -63.19)" fill="#263238"/>
          </g>
        </g>
        <g id="Group_51437" data-name="Group 51437" transform="translate(57.344 255.389)">
          <g id="Group_51436" data-name="Group 51436">
            <path id="Path_24834" data-name="Path 24834" d="M280.1,389.877l.716,13.457S267.371,407.6,267.26,410.1l26.143.535-.25-21.016-13.054.257Z" transform="translate(-267.121 -389.62)" fill="#455a64"/>
            <g id="Group_51434" data-name="Group 51434" transform="translate(20.488 12.411)" opacity="0.6">
              <path id="Path_24835" data-name="Path 24835" d="M297.814,407.516a1.069,1.069,0,0,1,.757,1.209,1.032,1.032,0,0,1-1.188.764,1.128,1.128,0,0,1-.8-1.278,1.059,1.059,0,0,1,1.327-.653" transform="translate(-296.55 -407.484)" fill="#fff"/>
            </g>
            <g id="Group_51435" data-name="Group 51435" transform="translate(0 18.897)" opacity="0.6">
              <path id="Path_24836" data-name="Path 24836" d="M293.342,418.939l-.028-2.119-25.261.361a1.812,1.812,0,0,0-.993,1.41Z" transform="translate(-267.06 -416.82)" fill="#fff"/>
            </g>
            <path id="Path_24837" data-name="Path 24837" d="M286.15,409.124c0,.125.646.174,1.278.577.646.382.98.931,1.1.875.118-.028-.083-.785-.861-1.257S286.122,409.006,286.15,409.124Z" transform="translate(-272.887 -395.535)" fill="#263238"/>
            <path id="Path_24838" data-name="Path 24838" d="M282.227,410.854c-.028.125.528.333.973.862s.577,1.1.7,1.091c.118.021.194-.729-.368-1.383s-1.306-.695-1.313-.577Z" transform="translate(-271.688 -396.084)" fill="#263238"/>
            <path id="Path_24839" data-name="Path 24839" d="M279.606,414.681c.118.028.285-.618-.056-1.306s-.945-.959-.993-.855c-.07.1.326.472.591,1.049.285.57.327,1.1.458,1.118Z" transform="translate(-270.567 -396.604)" fill="#263238"/>
            <path id="Path_24840" data-name="Path 24840" d="M286.41,404.528c.056.118.639-.069,1.362-.035s1.285.257,1.355.146c.069-.09-.486-.556-1.334-.591s-1.445.382-1.376.479Z" transform="translate(-272.967 -394.024)" fill="#263238"/>
          </g>
          <path id="Path_24841" data-name="Path 24841" d="M286.267,399.881a2.4,2.4,0,0,0,1.306-.028,5.826,5.826,0,0,0,1.362-.445,6.13,6.13,0,0,0,.743-.41,1.5,1.5,0,0,0,.389-.313.558.558,0,0,0,.049-.681.713.713,0,0,0-.563-.285,1.987,1.987,0,0,0-.493.076,4.395,4.395,0,0,0-.806.292,4.66,4.66,0,0,0-1.195.813c-.6.57-.8,1.049-.75,1.077s.347-.361.959-.841a5.556,5.556,0,0,1,1.153-.681,4.524,4.524,0,0,1,.75-.243c.278-.076.514-.083.584.042.028.049.028.063-.028.146a1.134,1.134,0,0,1-.285.229,7.164,7.164,0,0,1-.688.41,7,7,0,0,1-1.257.507,9.563,9.563,0,0,0-1.237.333Z" transform="translate(-272.921 -392.093)" fill="#263238"/>
          <path id="Path_24842" data-name="Path 24842" d="M285.745,399.271a2.066,2.066,0,0,0,.327-1.271,4.27,4.27,0,0,0-.2-1.431,4.361,4.361,0,0,0-.347-.792,1.078,1.078,0,0,0-.848-.646.625.625,0,0,0-.542.375,1.816,1.816,0,0,0-.125.479,2.877,2.877,0,0,0,.014.882,2.949,2.949,0,0,0,.584,1.341c.521.667,1.056.813,1.07.771.042-.063-.41-.306-.813-.945a3.03,3.03,0,0,1-.438-1.223,2.776,2.776,0,0,1,.014-.757c.035-.278.139-.507.243-.479.132,0,.354.2.465.424a4.01,4.01,0,0,1,.334.7,4.809,4.809,0,0,1,.278,1.3c.049.764-.076,1.25-.007,1.264Z" transform="translate(-272.225 -391.302)" fill="#263238"/>
        </g>
        <g id="Group_51440" data-name="Group 51440" transform="translate(84.98 254.188)">
          <path id="Path_24843" data-name="Path 24843" d="M319.512,387.89l.5,17.375,4.356,13.631a1.783,1.783,0,0,1-1.271,2.272h0a1.769,1.769,0,0,1-1.584-.375c-2.779-2.4-12.964-11.3-12.929-12.568.042-1.473-1.744-18.292-1.744-18.292l12.672-2.036Z" transform="translate(-306.84 -387.89)" fill="#455a64"/>
          <g id="Group_51438" data-name="Group 51438" transform="translate(1.681 19.154)" opacity="0.6">
            <path id="Path_24844" data-name="Path 24844" d="M323.836,429.584,309.26,415.46l.035.736a2.68,2.68,0,0,0,.723,1.7c1.167,1.237,4.474,4.585,12.179,11.31a1.781,1.781,0,0,0,1.64.375Z" transform="translate(-309.26 -415.46)" fill="#fff"/>
          </g>
          <g id="Group_51439" data-name="Group 51439" transform="translate(3.425 13.229)" opacity="0.6">
            <path id="Path_24845" data-name="Path 24845" d="M313.3,407.076a1.079,1.079,0,0,1,.368,1.389,1.038,1.038,0,0,1-1.376.375,1.136,1.136,0,0,1-.382-1.473,1.078,1.078,0,0,1,1.473-.236" transform="translate(-311.77 -406.931)" fill="#fff"/>
          </g>
          <path id="Path_24846" data-name="Path 24846" d="M323.961,424.225c.1.042.445-.889,1.452-1.431a5.575,5.575,0,0,1,1.98-.486c.014-.042-.215-.167-.625-.2a2.834,2.834,0,0,0-2.654,1.48C323.934,423.954,323.92,424.211,323.961,424.225Z" transform="translate(-312.061 -398.332)" fill="#263238"/>
          <path id="Path_24847" data-name="Path 24847" d="M325.914,427.825a13.8,13.8,0,0,1,1.5-.827,14.064,14.064,0,0,1,1.681-.306,1.977,1.977,0,0,0-1.813-.056c-1.007.354-1.466,1.146-1.369,1.188Z" transform="translate(-312.659 -399.667)" fill="#263238"/>
          <path id="Path_24848" data-name="Path 24848" d="M320.427,420.056a17.265,17.265,0,0,1,2.23-1.431,19.079,19.079,0,0,1,2.543-.736,3.9,3.9,0,0,0-2.7.389A3.963,3.963,0,0,0,320.427,420.056Z" transform="translate(-310.986 -397.018)" fill="#263238"/>
          <path id="Path_24849" data-name="Path 24849" d="M319.576,413.08c.049.1.993-.347,2.237-.458s2.251.139,2.279.028a4.422,4.422,0,0,0-4.523.431Z" transform="translate(-310.725 -395.316)" fill="#263238"/>
          <path id="Path_24850" data-name="Path 24850" d="M319.18,405.724a5.649,5.649,0,0,1,4.648-.083c.028-.035-.174-.243-.584-.458a3.824,3.824,0,0,0-1.751-.382,3.871,3.871,0,0,0-1.737.445c-.4.222-.6.438-.57.479Z" transform="translate(-310.607 -393.052)" fill="#263238"/>
          <path id="Path_24851" data-name="Path 24851" d="M321.26,402.5a2.2,2.2,0,0,0-.007-.66,4.676,4.676,0,0,0-.611-1.7,2.055,2.055,0,0,0-.917-.924.711.711,0,0,0-.8.2,1.167,1.167,0,0,0-.236.8,2.516,2.516,0,0,0,2.32,2.209,2.923,2.923,0,0,0,2.786-1.674,1,1,0,0,0,0-.848.7.7,0,0,0-.75-.333,2.477,2.477,0,0,0-1.112.653,4.96,4.96,0,0,0-1.112,1.41,1.489,1.489,0,0,0-.236.611,8.117,8.117,0,0,1,1.528-1.82,2.349,2.349,0,0,1,.987-.549.366.366,0,0,1,.41.181.688.688,0,0,1-.035.556,2.611,2.611,0,0,1-2.432,1.424,2.193,2.193,0,0,1-2-1.848.853.853,0,0,1,.139-.563.387.387,0,0,1,.438-.118,1.826,1.826,0,0,1,.792.764,6.671,6.671,0,0,1,.848,2.209Z" transform="translate(-310.457 -391.333)" fill="#263238"/>
        </g>
        <g id="Group_51443" data-name="Group 51443" transform="translate(53.828 140.911)">
          <g id="Group_51442" data-name="Group 51442">
            <path id="Path_24852" data-name="Path 24852" d="M298.03,227.619l3.411,120.752,18.55,1.494L335.469,224.84Z" transform="translate(-272.999 -224.84)" fill="#548491"/>
            <path id="Path_24853" data-name="Path 24853" d="M262,226.62s2.515,38.329,4.912,52.689,8.233,66.264,10.977,67.466,18.654-.431,18.654-.431l5.683-118.508L262,226.62Z" transform="translate(-262 -225.383)" fill="#548491"/>
            <g id="Group_51441" data-name="Group 51441" transform="translate(0.528 8.754)" opacity="0.3">
              <path id="Path_24854" data-name="Path 24854" d="M262.76,237.44l.16,2.161,29.54,3.724,8.524-4.849,17.118-.882Z" transform="translate(-262.76 -237.44)"/>
            </g>
          </g>
          <path id="Path_24855" data-name="Path 24855" d="M302.014,352.414c-.1,0,.361-24.719,1.028-55.2s1.292-55.2,1.4-55.2-.361,24.712-1.028,55.2S302.118,352.414,302.014,352.414Z" transform="translate(-274.211 -230.084)" fill="#263238"/>
        </g>
        <g id="Group_51448" data-name="Group 51448" transform="translate(34.744 45.621)">
          <path id="Path_24856" data-name="Path 24856" d="M234.537,125.015S254.5,96.364,256.164,96s19.779-8.316,19.779-8.316l10.907,22L303.49,90.633s15.527,11.644,16.451,14.235-11.831,39.746-11.831,39.746,5.732,8.872,6.836,18.855-1.112,28.839-1.112,28.839l-63-.577s-.667-27.852,4.127-42.372c2.584-7.823,5.447-17.132,5.447-17.132l-1.48-5.363-10.352,11.644L234.53,125.015Z" transform="translate(-234.53 -87.68)" fill="#548491"/>
          <path id="Path_24857" data-name="Path 24857" d="M315.093,132.154s.1-.049.327-.125a4.794,4.794,0,0,1,1.021-.222,10.186,10.186,0,0,1,3.918.424c1.647.438,3.585,1.146,5.815,1.9,1.119.375,2.307.757,3.585,1.091a17.379,17.379,0,0,0,4.043.653h.2l-.035.188c-.952,5.287-2.07,11.477-3.258,18.07-.062.333-.125.674-.181,1l-.042.229-.215-.1c-1.514-.688-3.022-1.334-4.5-1.938a33.647,33.647,0,0,0-4.419-1.521,62.219,62.219,0,0,0-8.476-1.112l-.167-.014.021-.16c.688-5.516,1.264-10.115,1.667-13.367.208-1.577.368-2.835.486-3.717.056-.4.1-.729.139-.973a1.686,1.686,0,0,1,.063-.32s0,.125-.021.354c-.028.25-.056.577-.1.993-.1.9-.236,2.154-.4,3.752-.368,3.237-.889,7.816-1.515,13.311l-.146-.174a61.247,61.247,0,0,1,8.531,1.084A33.6,33.6,0,0,1,325.9,153q2.241.9,4.523,1.938l-.25.132c.063-.327.118-.667.181-1,1.209-6.593,2.334-12.783,3.307-18.063l.167.188a17.2,17.2,0,0,1-4.148-.688c-1.285-.34-2.48-.736-3.592-1.125-2.23-.778-4.155-1.508-5.78-1.973a10.406,10.406,0,0,0-3.856-.507,13.489,13.489,0,0,0-1.362.25Z" transform="translate(-258.395 -101.134)" fill="#263238"/>
          <path id="Path_24858" data-name="Path 24858" d="M352.271,112.42l9.608,36.231L342.413,155.7l-1.973-3.536Z" transform="translate(-266.86 -95.232)" fill="#548491"/>
          <path id="Path_24859" data-name="Path 24859" d="M258,215.761a1.353,1.353,0,0,1,.16.014c.125.021.278.049.465.076.438.076,1.035.174,1.785.3,1.549.25,3.8.6,6.6.792a30.381,30.381,0,0,0,4.571,0,9.353,9.353,0,0,0,1.23-.174c.208-.042.417-.076.618-.132s.4-.132.6-.2c.82-.229,1.264-1.084,1.633-1.9a15.03,15.03,0,0,0,.827-2.7c.215-.945.382-1.917.521-2.918.285-1.994.465-4.078.6-6.218.278-4.669.32-9.115.25-13.047l.16.16c-5.308-.111-9.8-.2-13-.271-1.563-.042-2.807-.076-3.7-.1q-.6-.021-.98-.042a1.236,1.236,0,0,1-.333-.035,2.183,2.183,0,0,1,.34-.021c.25,0,.577,0,.98-.007.889,0,2.133.007,3.7.014,3.2.035,7.7.083,13.005.139h.16v.16c.09,3.946.063,8.392-.215,13.082-.132,2.147-.32,4.238-.611,6.246-.139,1.007-.313,1.987-.535,2.946a15.634,15.634,0,0,1-.854,2.751,5.521,5.521,0,0,1-.7,1.23,3.5,3.5,0,0,1-.5.514,2.356,2.356,0,0,1-.632.32c-.215.069-.431.139-.639.208s-.431.083-.646.132a8.885,8.885,0,0,1-1.264.167,29,29,0,0,1-4.62-.042,62.046,62.046,0,0,1-6.607-.91c-.771-.146-1.369-.278-1.779-.368-.181-.042-.333-.083-.459-.111a1.258,1.258,0,0,1-.153-.049Z" transform="translate(-241.688 -118.713)" fill="#263238"/>
          <path id="Path_24860" data-name="Path 24860" d="M278.452,196.261c0,.1-4.148.181-9.261.181s-9.261-.083-9.261-.181,4.148-.181,9.261-.181S278.452,196.163,278.452,196.261Z" transform="translate(-242.284 -120.771)" fill="#263238"/>
          <path id="Path_24861" data-name="Path 24861" d="M289.18,138.14c.076.063-4.683,6.482-10.63,14.332s-10.838,14.18-10.921,14.117,4.676-6.475,10.629-14.332,10.838-14.173,10.914-14.117Z" transform="translate(-244.634 -103.083)" fill="#263238"/>
          <path id="Path_24862" data-name="Path 24862" d="M269.144,131.595s-.1-.389-.2-1.1-.243-1.751-.382-3.036a99.6,99.6,0,0,1-.59-10.074,87.562,87.562,0,0,1,.521-10.074c.146-1.285.285-2.32.41-3.029a7.3,7.3,0,0,1,.215-1.1,6.657,6.657,0,0,1-.076,1.119c-.076.716-.181,1.758-.292,3.036-.229,2.564-.438,6.121-.417,10.046s.271,7.482.486,10.046c.111,1.237.2,2.258.271,3.043a6.409,6.409,0,0,1,.063,1.119Z" transform="translate(-244.737 -92.412)" fill="#263238"/>
          <path id="Path_24863" data-name="Path 24863" d="M284.928,127.35s-.1.354-.333.973-.591,1.508-1.042,2.605c-.91,2.188-2.23,5.183-3.8,8.434s-3.092,6.155-4.238,8.226c-.57,1.035-1.049,1.869-1.389,2.439a6.562,6.562,0,0,1-.556.868,5.146,5.146,0,0,1,.438-.931c.333-.646.764-1.487,1.285-2.487,1.091-2.1,2.571-5.009,4.141-8.26s2.925-6.225,3.891-8.379c.465-1.035.848-1.89,1.153-2.557a6.587,6.587,0,0,1,.459-.924Z" transform="translate(-246.447 -99.79)" fill="#263238"/>
          <path id="Path_24864" data-name="Path 24864" d="M323.677,95.318s-.1.167-.32.472c-.236.327-.563.771-.973,1.327-.882,1.174-2.126,2.835-3.668,4.884-3.154,4.155-7.524,9.893-12.457,16.382l-.056.069h-8l-.049-.1c-3.571-7.559-6.746-14.277-9.045-19.133-1.119-2.4-2.022-4.342-2.661-5.718-.3-.653-.528-1.174-.7-1.549-.069-.16-.125-.3-.174-.4s-.056-.139-.049-.146.035.042.083.125c.056.1.125.236.208.389.188.375.438.882.764,1.521.66,1.362,1.6,3.286,2.758,5.669,2.32,4.849,5.537,11.547,9.15,19.084l-.16-.1h7.795l-.139.069c4.967-6.461,9.372-12.179,12.547-16.312,1.577-2.029,2.855-3.661,3.752-4.821.431-.542.771-.973,1.028-1.292a2.936,2.936,0,0,1,.375-.431Z" transform="translate(-250.098 -88.815)" fill="#263238"/>
          <path id="Path_24865" data-name="Path 24865" d="M335.094,184.512a6.283,6.283,0,0,1-.507-.584c-.306-.389-.729-.966-1.216-1.7A37.912,37.912,0,0,1,328,169.548c-.188-.861-.313-1.57-.375-2.063a3.316,3.316,0,0,1-.069-.764c.056-.007.257,1.063.695,2.765a47.578,47.578,0,0,0,2.188,6.5,46.344,46.344,0,0,0,3.147,6.093c.917,1.5,1.556,2.39,1.508,2.425Z" transform="translate(-262.925 -111.808)" fill="#263238"/>
          <path id="Path_24866" data-name="Path 24866" d="M331.427,174.811c-.056-.09,1.619-1.251,3.522-2.883s3.321-3.1,3.4-3.029a22.944,22.944,0,0,1-6.927,5.905Z" transform="translate(-264.107 -112.472)" fill="#263238"/>
          <path id="Path_24867" data-name="Path 24867" d="M343.328,157.832a2.07,2.07,0,0,1-.16-.243c-.111-.195-.243-.438-.41-.729-.368-.688-.875-1.619-1.508-2.786l-.021-.035.014-.042c1.014-3.9,2.723-10.3,4.69-17.514,1.64-5.954,3.126-11.338,4.217-15.291.549-1.917.993-3.488,1.32-4.62q.229-.771.375-1.251a3.2,3.2,0,0,1,.153-.431,2.41,2.41,0,0,1-.083.452c-.083.327-.181.75-.313,1.271-.3,1.139-.709,2.723-1.209,4.655-1.063,3.96-2.515,9.358-4.113,15.319-1.966,7.211-3.731,13.6-4.835,17.473v-.076c.584,1.188,1.063,2.14,1.41,2.835.146.306.264.556.361.757.076.174.118.264.1.271Z" transform="translate(-267.101 -95.986)" fill="#263238"/>
          <g id="Group_51444" data-name="Group 51444" transform="translate(24.114 35.675)" opacity="0.3">
            <path id="Path_24868" data-name="Path 24868" d="M285.413,139.03a148.779,148.779,0,0,0-16.173,26.157l.479-.236,4.585-6.378q5.617-7.816,11.241-15.625a4.694,4.694,0,0,0,1.028-2.112A1.6,1.6,0,0,0,285.413,139.03Z" transform="translate(-269.24 -139.03)"/>
          </g>
          <g id="Group_51445" data-name="Group 51445" transform="translate(21.629 18.195)" opacity="0.3">
            <path id="Path_24869" data-name="Path 24869" d="M268.44,134.858a24.5,24.5,0,0,1-.8-20.988S267.731,131.447,268.44,134.858Z" transform="translate(-265.663 -113.87)"/>
          </g>
          <path id="Path_24870" data-name="Path 24870" d="M333.732,141.55a6.3,6.3,0,0,1-.743-.063c-.472-.063-1.153-.174-1.994-.32-1.681-.3-3.988-.771-6.517-1.4s-4.794-1.278-6.412-1.8c-.813-.257-1.466-.479-1.917-.639a3.031,3.031,0,0,1-.688-.285,3.41,3.41,0,0,1,.729.153c.535.146,1.188.327,1.945.535,1.64.452,3.911,1.07,6.426,1.7s4.815,1.132,6.475,1.494c.771.167,1.424.313,1.966.438a2.977,2.977,0,0,1,.716.2Z" transform="translate(-259.235 -102.749)" fill="#263238"/>
          <g id="Group_51446" data-name="Group 51446" transform="translate(54.502 49.391)" opacity="0.3">
            <path id="Path_24871" data-name="Path 24871" d="M312.98,158.792s12.311,5.989,17.459,4.557C330.439,163.349,321.657,158.43,312.98,158.792Z" transform="translate(-312.98 -158.773)"/>
          </g>
          <g id="Group_51447" data-name="Group 51447" transform="translate(74.809 27.178)" opacity="0.3">
            <path id="Path_24872" data-name="Path 24872" d="M342.21,156.048s9.5-5.947,7.677-29.248Z" transform="translate(-342.21 -126.8)"/>
          </g>
        </g>
        <path id="Path_24873" data-name="Path 24873" d="M318.829,237.361c0,.1-13.422.181-29.971.181s-29.978-.083-29.978-.181,13.415-.181,29.978-.181S318.829,237.263,318.829,237.361Z" transform="translate(-207.219 -87.696)" fill="#263238"/>
        <g id="Group_51449" data-name="Group 51449" transform="translate(109.455 101.526)">
          <path id="Path_24874" data-name="Path 24874" d="M356.155,168.15s1.362,22.593.806,26.1-2.543,19.411-2.543,19.411l-8-1.66-2.182-39.538,11.908-4.314Z" transform="translate(-342.731 -168.15)" fill="#8e6055"/>
          <path id="Path_24875" data-name="Path 24875" d="M353.852,232.966c-.083-.195-.132-.306-.132-.306l-8-1.66s-2.89,7.955-3.161,9.233.181,4.926-.361,6.836.729,2.008,1.494,2.008,3.7-8.656,3.7-8.656l.549,4.009-1.82,4.009s.361,2.459.91,2.383a14.527,14.527,0,0,0,2.668-1.744l.333,1.278s-1,.549.459.459a3.727,3.727,0,0,0,2.459-1.64l.771,1.188,3.147-3.467s.459-5.287.459-5.627c0-.3-2.821-6.788-3.474-8.288Z" transform="translate(-342.069 -187.336)" fill="#8e6055"/>
        </g>
      </g>
    </g>
    <g id="Character_1" data-name="Character 1" transform="translate(31.346 41.665)">
      <g id="Group_51472" data-name="Group 51472">
        <g id="Group_51463" data-name="Group 51463" transform="translate(0 48.437)">
          <g id="Group_51453" data-name="Group 51453" transform="translate(31.064 194.019)">
            <path id="Path_24876" data-name="Path 24876" d="M76.06,399.686s.723,4.516.695,5.308l3.2,2.744,8.115-1.813.674-6.635-12.679.4Z" transform="translate(-76.06 -399.29)" fill="#ffc4af"/>
            <g id="Group_51452" data-name="Group 51452" transform="translate(0.354 5.53)">
              <path id="Path_24877" data-name="Path 24877" d="M88.374,407.361l.014.723s12.269,4.759,12.429,7.072l-24.246.167.271-8.073a13.863,13.863,0,0,0,11.533.111Z" transform="translate(-76.57 -407.25)" fill="#455a64"/>
              <g id="Group_51451" data-name="Group 51451" transform="translate(0 6.135)" opacity="0.6">
                <path id="Path_24878" data-name="Path 24878" d="M76.57,418.018l.069-1.938,23.211.549s1.084.465.966,1.223Z" transform="translate(-76.57 -416.08)" fill="#fff"/>
              </g>
              <path id="Path_24879" data-name="Path 24879" d="M92.734,408.5c0,.118-.6.174-1.174.563-.591.368-.889.882-.993.841-.111-.021.063-.729.771-1.181s1.424-.327,1.4-.215Z" transform="translate(-80.833 -407.6)" fill="#263238"/>
              <path id="Path_24880" data-name="Path 24880" d="M96.668,410.007c.028.111-.486.32-.882.82s-.514,1.035-.632,1.028c-.111.021-.195-.674.313-1.292s1.195-.674,1.2-.563Z" transform="translate(-82.217 -408.075)" fill="#263238"/>
              <path id="Path_24881" data-name="Path 24881" d="M99.416,413.5c-.1.028-.278-.563.021-1.216s.855-.91.9-.813c.069.1-.292.445-.528.987S99.534,413.486,99.416,413.5Z" transform="translate(-83.5 -408.532)" fill="#263238"/>
            </g>
          </g>
          <g id="Group_51456" data-name="Group 51456" transform="translate(57.464 194.019)">
            <path id="Path_24882" data-name="Path 24882" d="M114.06,399.686s.723,4.516.695,5.308l3.2,2.744,8.115-1.813.674-6.635-12.679.4Z" transform="translate(-114.06 -399.29)" fill="#ffc4af"/>
            <g id="Group_51455" data-name="Group 51455" transform="translate(0.347 5.53)">
              <path id="Path_24883" data-name="Path 24883" d="M126.374,407.361l.014.723s12.269,4.759,12.429,7.072l-24.246.167.271-8.073A13.863,13.863,0,0,0,126.374,407.361Z" transform="translate(-114.563 -407.25)" fill="#455a64"/>
              <g id="Group_51454" data-name="Group 51454" transform="translate(0 6.135)" opacity="0.6">
                <path id="Path_24884" data-name="Path 24884" d="M114.567,418.018l.063-1.938,23.211.549s1.084.465.966,1.223l-24.246.167Z" transform="translate(-114.56 -416.08)" fill="#fff"/>
              </g>
              <path id="Path_24885" data-name="Path 24885" d="M130.734,408.5c0,.118-.6.174-1.174.563-.591.368-.889.882-.993.841-.111-.021.063-.729.771-1.181s1.424-.327,1.4-.215Z" transform="translate(-118.826 -407.6)" fill="#263238"/>
              <path id="Path_24886" data-name="Path 24886" d="M134.668,410.007c.028.111-.486.32-.882.82-.417.493-.514,1.035-.632,1.028-.111.021-.195-.674.313-1.292s1.195-.674,1.2-.563Z" transform="translate(-120.21 -408.075)" fill="#263238"/>
              <path id="Path_24887" data-name="Path 24887" d="M137.416,413.5c-.1.028-.278-.563.021-1.216s.855-.91.9-.813c.069.1-.292.445-.528.987S137.534,413.486,137.416,413.5Z" transform="translate(-121.493 -408.532)" fill="#263238"/>
            </g>
          </g>
          <g id="Group_51457" data-name="Group 51457" transform="translate(19.059 81.208)">
            <path id="Path_24888" data-name="Path 24888" d="M117.583,236.91H64.289L58.78,262.15l11.012,89.718H86.833l3.9-79.026,4.106,79.026h18.272l7.677-88.725Z" transform="translate(-58.78 -236.91)" fill="#263238"/>
            <path id="Path_24889" data-name="Path 24889" d="M84.443,369.534c-.09,0-.327-15.812-.521-35.313s-.278-35.32-.188-35.32.327,15.805.521,35.313.278,35.314.188,35.314Z" transform="translate(-66.386 -255.833)" fill="#455a64"/>
            <path id="Path_24890" data-name="Path 24890" d="M124.06,366.561s0-.069.007-.2.035-.34.056-.577c.056-.528.139-1.271.243-2.216.222-1.924.514-4.71.841-8.163s.667-7.559.973-12.123.542-9.594.695-14.881.167-10.317.139-14.9c-.049-4.578-.153-8.705-.292-12.165s-.271-6.26-.389-8.191c-.049-.952-.09-1.7-.118-2.23-.007-.243-.014-.431-.021-.577v-.2a1.954,1.954,0,0,1,.028.194c.014.146.035.34.056.577.042.528.1,1.278.181,2.223.153,1.931.327,4.731.493,8.191s.3,7.587.368,12.172c.049,4.585.035,9.622-.111,14.909s-.417,10.317-.723,14.888-.681,8.684-1.042,12.13-.688,6.232-.945,8.149c-.132.945-.229,1.681-.3,2.209-.035.236-.063.424-.083.577a.709.709,0,0,1-.042.195Z" transform="translate(-78.708 -253.159)" fill="#455a64"/>
          </g>
          <path id="Path_24891" data-name="Path 24891" d="M92.242,120.387l-20.335,1.1-1.667,7.67s5.62,4.509,6.176,4.7,13.339,1.973,13.339,1.973,13.77-6.419,13.582-6.364-11.1-9.08-11.1-9.08Z" transform="translate(-43.219 -120.13)" fill="#ffc4af"/>
          <g id="Group_51458" data-name="Group 51458" transform="translate(53.754 0.005)">
            <path id="Path_24892" data-name="Path 24892" d="M108.72,120.21c.806,0,9.386-1.146,14.631,2.307s19.328,30.159,19.328,30.159,4.293,14.228-1.744,17.049-22.009,11.408-22.009,11.408l-3.891-14.1,11-5.1V148.381L108.72,120.2Z" transform="translate(-108.72 -120.027)" fill="#455a64"/>
            <path id="Path_24893" data-name="Path 24893" d="M126.312,135.349c-.056-.007.035-.716,0-1.848a13.631,13.631,0,0,0-3.057-8.142c-.716-.875-1.251-1.348-1.216-1.389a1.487,1.487,0,0,1,.41.292,8.43,8.43,0,0,1,.98.952,12.312,12.312,0,0,1,3.112,8.288,9.781,9.781,0,0,1-.111,1.362A1.483,1.483,0,0,1,126.312,135.349Z" transform="translate(-112.785 -121.23)" fill="#263238"/>
          </g>
          <g id="Group_51460" data-name="Group 51460" transform="translate(12.696)">
            <path id="Path_24894" data-name="Path 24894" d="M74.63,132.694s7.753,4.481,13.638,3.175a23.041,23.041,0,0,0,10.053-5.419l10.4,23.816-6.162,47.721-18.584,2.432-6.162-45.255-3.175-26.469Z" transform="translate(-57.255 -123.204)" fill="#fff"/>
            <path id="Path_24895" data-name="Path 24895" d="M66.412,121.564c-.264.09-4.036,1.417-4.036,1.417l-7.461,48.694s-5.787,20.279-5.259,29.047,5.231,35.9,5.231,35.9l34.063-3.592-1.41-53.293s2.452-15.333-4.821-24.628-16.3-33.563-16.3-33.563Z" transform="translate(-49.621 -120.487)" fill="#455a64"/>
            <path id="Path_24896" data-name="Path 24896" d="M101.91,120.027c.472.667,7.92,28.971,7.121,34.931S103.9,173.4,103.9,173.4v59l30.054-2.751s2.459-21.544,0-31.854-6.051-22.537-6.051-22.537l-2.369-36.015-15.124-19.23h-8.5Z" transform="translate(-65.583 -120.02)" fill="#455a64"/>
            <g id="Group_51459" data-name="Group 51459" transform="translate(22.434 47.464)">
              <path id="Path_24897" data-name="Path 24897" d="M88.816,192.057c.167-.056,5.349-2.89,6.656-3.057s11.5-.66,11.5-.66l2.723,9.858s-8.49,4.12-9.8,4.446-6.878,2.348-7.8,2.348-3.55-.875-3.55-1.473a.932.932,0,0,1,.382-.82,18.55,18.55,0,0,0,3.55-.215,15.984,15.984,0,0,0,1.8-.764s-9.33,1.417-9.99,1.2-1.146-1.591-1.146-1.591-1.091-.757-1.2-1.466.271-1.035.875-1.313,4.641-2.077,5.843-2.4,4.363-.875,4.363-.875-9.608,1.035-10.206.764-1.257-1.313-.271-1.911a13.668,13.668,0,0,1,3.877-1.7c1.091-.167,2.4-.382,2.4-.382Z" transform="translate(-81.912 -188.34)" fill="#ffc4af"/>
              <path id="Path_24898" data-name="Path 24898" d="M96.045,202.148a9.954,9.954,0,0,1-1.8.736c-1.132.4-2.716.9-4.495,1.348s-3.411.764-4.6.945a10.505,10.505,0,0,1-1.931.208,13.147,13.147,0,0,1,1.89-.438c1.174-.243,2.786-.591,4.557-1.035s3.356-.9,4.5-1.251A14.058,14.058,0,0,1,96.045,202.148Z" transform="translate(-82.312 -192.553)" fill="#df947f"/>
              <path id="Path_24899" data-name="Path 24899" d="M97.81,191.561a13.566,13.566,0,0,1-2.9.82,13.733,13.733,0,0,1-2.973.493,13.563,13.563,0,0,1,2.9-.82,13.764,13.764,0,0,1,2.967-.493Z" transform="translate(-84.973 -189.317)" fill="#df947f"/>
              <path id="Path_24900" data-name="Path 24900" d="M114.183,193.979s-.146.014-.389.056a3.445,3.445,0,0,0-.973.389,3.159,3.159,0,0,1-1.577.5c-.646-.035-1.285-.4-1.779.042a5.019,5.019,0,0,1-.834.625,1.754,1.754,0,0,1-1.021.1c-.625-.118-1.1-.361-1.542-.389a1.235,1.235,0,0,0-.938.271c-.181.16-.215.306-.243.292s-.021-.167.153-.382a1.3,1.3,0,0,1,1.042-.41,12.964,12.964,0,0,1,1.577.32,1.427,1.427,0,0,0,.834-.09,5.582,5.582,0,0,0,.778-.6,1.376,1.376,0,0,1,.528-.25,1.494,1.494,0,0,1,.556,0c.34.056.639.153.917.174a3.224,3.224,0,0,0,1.452-.41,3.034,3.034,0,0,1,1.063-.306.69.69,0,0,1,.4.076Z" transform="translate(-88.924 -190.04)" fill="#df947f"/>
              <path id="Path_24901" data-name="Path 24901" d="M114.963,196.915a2.265,2.265,0,0,1-1.084.729,3.143,3.143,0,0,1-1.438.146,2.988,2.988,0,0,0-.771-.063.814.814,0,0,0-.584.431,1.39,1.39,0,0,1-.764.591,2.252,2.252,0,0,1-.882.035,7.29,7.29,0,0,0-1.348-.208,1.2,1.2,0,0,0-.785.327c-.146.146-.174.271-.2.264s-.035-.146.1-.347a1.216,1.216,0,0,1,.861-.479,5.388,5.388,0,0,1,1.41.139,1.248,1.248,0,0,0,1.348-.521,1.773,1.773,0,0,1,.333-.361.991.991,0,0,1,.479-.195,3.235,3.235,0,0,1,.861.083,3.027,3.027,0,0,0,1.32-.069,7.539,7.539,0,0,0,1.153-.507Z" transform="translate(-89.6 -190.955)" fill="#df947f"/>
            </g>
            <path id="Path_24902" data-name="Path 24902" d="M70.24,200.095a5.1,5.1,0,0,1-.7.028,6.125,6.125,0,0,1-.827-.042,10.32,10.32,0,0,1-1.091-.125,19.971,19.971,0,0,1-2.779-.618,27.915,27.915,0,0,1-3.265-1.23,38.537,38.537,0,0,1-5.5-3.112c-.674-.452-1.2-.834-1.563-1.1a2.683,2.683,0,0,1-.542-.452,2.674,2.674,0,0,1,.611.347c.445.278.98.618,1.619,1.014a48.93,48.93,0,0,0,5.509,3,30.742,30.742,0,0,0,3.217,1.237,22.922,22.922,0,0,0,2.73.681c1.577.285,2.577.3,2.577.361Z" transform="translate(-50.948 -142.431)" fill="#263238"/>
            <path id="Path_24903" data-name="Path 24903" d="M76.783,208.711s-.382-.056-1.063-.215c-.34-.076-.757-.181-1.23-.333s-1.021-.306-1.6-.535a34.569,34.569,0,0,1-4.023-1.765,47.761,47.761,0,0,1-4.62-2.758,58.715,58.715,0,0,1-7.545-6.19c-.9-.868-1.6-1.591-2.07-2.105a6.513,6.513,0,0,1-.709-.82,6.523,6.523,0,0,1,.8.729c.5.486,1.23,1.181,2.14,2.029a66.733,66.733,0,0,0,7.566,6.086A53.116,53.116,0,0,0,69,205.6a37.3,37.3,0,0,0,3.967,1.813c.577.243,1.112.41,1.577.577s.868.292,1.209.389a6.42,6.42,0,0,1,1.028.34Z" transform="translate(-50.933 -142.6)" fill="#263238"/>
            <path id="Path_24904" data-name="Path 24904" d="M131.781,178.285a14.309,14.309,0,0,1-1.987,1c-1.244.577-2.98,1.348-4.9,2.175s-3.689,1.535-4.974,2.022c-.646.243-1.167.431-1.528.549a2.187,2.187,0,0,1-.577.153,17.683,17.683,0,0,1,2.022-.924l4.933-2.112c1.89-.792,3.592-1.515,4.94-2.084a15.2,15.2,0,0,1,2.084-.785Z" transform="translate(-70.436 -137.803)" fill="#263238"/>
            <path id="Path_24905" data-name="Path 24905" d="M119.54,139.88a3.146,3.146,0,0,1,.229.222c.16.181.361.4.6.674.528.584,1.292,1.41,2.286,2.4s2.2,2.14,3.488,3.474a26.325,26.325,0,0,1,3.745,4.752,15.559,15.559,0,0,1,2,5.711c.243,1.848.32,3.515.382,4.919s.076,2.536.083,3.321c0,.361,0,.66-.007.9a.78.78,0,0,1-.028.313.972.972,0,0,1-.042-.313c-.014-.243-.035-.542-.056-.9-.049-.834-.111-1.952-.188-3.314-.1-1.4-.195-3.064-.452-4.884a15.629,15.629,0,0,0-1.98-5.586,27.879,27.879,0,0,0-3.675-4.71c-1.271-1.341-2.466-2.508-3.432-3.522s-1.723-1.869-2.216-2.473c-.222-.285-.4-.521-.549-.716a1.136,1.136,0,0,1-.174-.264Z" transform="translate(-70.965 -126.083)" fill="#263238"/>
            <path id="Path_24906" data-name="Path 24906" d="M144.353,191.973s-.327.222-.952.563c-.674.361-1.563.848-2.64,1.431-2.237,1.195-5.343,2.828-8.775,4.613-3.529,1.834-6.718,3.467-8.983,4.613l-.132.063-.035-.139c-.292-1.139-.535-2.084-.716-2.793a7.351,7.351,0,0,1-.222-1.028,7.372,7.372,0,0,1,.34.993c.208.7.479,1.633.82,2.765l-.167-.069c2.237-1.195,5.412-2.869,8.934-4.7,3.439-1.785,6.558-3.383,8.823-4.53,1.1-.549,2.008-1,2.689-1.341a6.821,6.821,0,0,1,1.007-.452Z" transform="translate(-71.684 -141.98)" fill="#263238"/>
          </g>
          <path id="Path_24907" data-name="Path 24907" d="M105.549,209.59s0,.181-.014.514c-.028.368-.063.855-.111,1.466-.125,1.264-.208,3.112-.327,5.384-.2,4.551-.257,10.845-.153,17.8s.327,13.249.507,17.8c.09,2.251.167,4.085.215,5.391.021.611.042,1.1.049,1.466a4.841,4.841,0,0,1,0,.514,2.461,2.461,0,0,1-.063-.507c-.028-.368-.069-.855-.111-1.466-.09-1.271-.208-3.112-.327-5.391-.243-4.551-.5-10.845-.6-17.806s-.014-13.263.25-17.813c.146-2.279.264-4.12.431-5.384.069-.611.132-1.1.174-1.459a2.528,2.528,0,0,1,.083-.507Z" transform="translate(-53.699 -147.362)" fill="#263238"/>
          <g id="Group_51462" data-name="Group 51462" transform="translate(0 2.501)">
            <path id="Path_24908" data-name="Path 24908" d="M56.8,123.62s-11.234,4.794-14.708,12.394S31.516,167.736,31.349,172.2s8.094,18.341,8.094,18.341l13.054-8.26-2.48-6.114,3.967-26.275L56.79,123.62Z" transform="translate(-31.346 -123.62)" fill="#455a64"/>
            <path id="Path_24909" data-name="Path 24909" d="M58.065,355.135h0a1.585,1.585,0,0,1-1.584-1.591c0-1.285.2-128.262.146-130.312a8.352,8.352,0,0,0-2.9-6.468,1.591,1.591,0,0,1,1.848-2.591,11.515,11.515,0,0,1,4.238,8.969c.056,2.1-.132,125.171-.139,130.409a1.589,1.589,0,0,1-1.591,1.584Z" transform="translate(-37.977 -151.175)" fill="#263238"/>
            <path id="Path_24910" data-name="Path 24910" d="M46.579,234.075h0a1.6,1.6,0,0,1-1.591-1.591c0-4.717.014-11.887,0-12.311a1.568,1.568,0,0,1,1.473-1.674,1.615,1.615,0,0,1,1.7,1.494c0,.076.021.3,0,12.491a1.589,1.589,0,0,1-1.591,1.584Z" transform="translate(-35.509 -152.582)" fill="#263238"/>
            <g id="Group_51461" data-name="Group 51461" transform="translate(8.714 57.947)">
              <path id="Path_24911" data-name="Path 24911" d="M48.7,208s-2.307,2.022-3.078,2.7-1.73,6.642-1.73,6.642,3.369,3.606,4.815,3.752a3.87,3.87,0,0,0,2.6-.82s1.445.82,2.307.1-1.2-5.391-1.2-5.391-.778-2.265,1.417-2.119l.945,1.688,2.355,4.036s1.445-.195,1.681-.917-.625-3.119-.625-3.119a3.492,3.492,0,0,0,.431-2.848c-.528-1.4-1.4-3.946-3.946-4.523s-5.968.82-5.968.82Z" transform="translate(-43.89 -207.029)" fill="#ffc4af"/>
              <path id="Path_24912" data-name="Path 24912" d="M52.019,221.387c-.042.035-.431-.479-1.146-1.223a18.3,18.3,0,0,0-3.078-2.571,2.81,2.81,0,0,1-.841-.875,1.759,1.759,0,0,1-.195-1.139,3.547,3.547,0,0,1,.827-1.674c.333-.4.611-.716.785-.938s.271-.354.292-.347a4.552,4.552,0,0,1-.889,1.424,3.456,3.456,0,0,0-.716,1.57,1.492,1.492,0,0,0,.174.938,2.636,2.636,0,0,0,.757.764A15.28,15.28,0,0,1,51.047,220a5.378,5.378,0,0,1,.973,1.376Z" transform="translate(-44.759 -208.736)" fill="#df947f"/>
              <path id="Path_24913" data-name="Path 24913" d="M60.1,214.324c.069.063-.306.542-.472,1.237s-.063,1.292-.153,1.313a1.535,1.535,0,0,1-.167-1.4c.188-.8.736-1.23.792-1.16Z" transform="translate(-48.576 -209.252)" fill="#df947f"/>
            </g>
            <path id="Path_24914" data-name="Path 24914" d="M35.74,190.22s.32-.028.9-.021c.292.007.646,0,1.063.028.424.056.889.111,1.4.174s1.07.236,1.667.368c.3.076.591.2.9.306a7.57,7.57,0,0,1,.945.368,15.658,15.658,0,0,1,3.8,2.4,24.151,24.151,0,0,1,3.126,3.224c.882,1.063,1.619,2.049,2.251,2.876s1.139,1.487,1.508,1.938a5.6,5.6,0,0,1,.542.723,5.338,5.338,0,0,1-.639-.639c-.4-.424-.938-1.07-1.591-1.876s-1.417-1.785-2.3-2.828a25.027,25.027,0,0,0-3.105-3.168,16.119,16.119,0,0,0-3.71-2.376,7.218,7.218,0,0,0-.917-.368c-.306-.1-.591-.236-.882-.313-.591-.139-1.125-.32-1.633-.4s-.959-.153-1.376-.222c-.41-.049-.764-.056-1.049-.083a5.375,5.375,0,0,1-.9-.1Z" transform="translate(-32.688 -143.944)" fill="#263238"/>
            <path id="Path_24915" data-name="Path 24915" d="M58.34,157.81s-.028.4-.146,1.119-.292,1.744-.521,3.022c-.493,2.591-1.16,6.072-1.89,9.928-.736,3.877-1.32,7.4-1.688,9.956-.174,1.237-.32,2.258-.431,3.029a7.491,7.491,0,0,1-.188,1.112,7.535,7.535,0,0,1,.063-1.125c.056-.723.167-1.765.327-3.05.313-2.571.861-6.107,1.6-9.983s1.466-7.378,1.987-9.907c.257-1.223.465-2.237.625-3a7.269,7.269,0,0,1,.271-1.091Z" transform="translate(-38.1 -134.057)" fill="#263238"/>
            <path id="Path_24916" data-name="Path 24916" d="M62.318,416.785H56.35l1.112-4.745h3.529Z" transform="translate(-38.979 -211.664)" fill="#455a64"/>
          </g>
        </g>
        <g id="Group_51471" data-name="Group 51471" transform="translate(20.251)">
          <path id="Path_24917" data-name="Path 24917" d="M67.963,64.827a4.769,4.769,0,0,1,4.627-2.605,6.384,6.384,0,0,1,5.488-7.149c1.8-.16,3.731.452,5.363-.32A11.073,11.073,0,0,0,86,52.565c3.488-3.21,9.414-2.89,12.992.215s4.815,8.413,3.64,13.005c-.542,2.133-1.556,4.2-1.556,6.4,0,2.063.9,4.029,1.091,6.093s-.723,4.537-2.751,4.926L79.051,88.775a8.052,8.052,0,0,1-8.886-2.932c-1.327-1.89-1.751-4.252-2.147-6.531a61.317,61.317,0,0,1-1.091-8.99,10.731,10.731,0,0,1,1.035-5.488Z" transform="translate(-62.457 -50.3)" fill="#e0e0e0"/>
          <path id="Path_24918" data-name="Path 24918" d="M61.5,82.124a3.133,3.133,0,0,1,4.016-.723c3.564.049,6.774-.132,9.407,2.272a12.181,12.181,0,0,1,4.016,9.532,10.3,10.3,0,0,1-5.558,8.552,8.963,8.963,0,0,1-9.928-1.466A7.946,7.946,0,0,1,62.3,90.51a15.372,15.372,0,0,1-1.688-4.134,5.123,5.123,0,0,1,.889-4.245Z" transform="translate(-60.495 -59.657)" fill="#e0e0e0"/>
          <g id="Group_51470" data-name="Group 51470" transform="translate(5.763 7.586)">
            <g id="Group_51469" data-name="Group 51469">
              <path id="Path_24919" data-name="Path 24919" d="M85.4,114.347a8.99,8.99,0,0,1-9.059-8.712L75.463,76.24c-.486-7.885,3.7-14.749,11.6-15.02l.729.021a14.131,14.131,0,0,1,13.77,13.325c.389,6.843.723,14.4.591,18.063-.278,7.58-7.885,8.573-7.885,8.573s.007,1.758.049,3.981A8.979,8.979,0,0,1,85.4,114.34h0Z" transform="translate(-70.815 -61.22)" fill="#ffc4af"/>
              <path id="Path_24920" data-name="Path 24920" d="M98.233,117.514a18.317,18.317,0,0,1-9.8-3.154s2.272,5.572,9.858,5.072Z" transform="translate(-74.785 -77.442)" fill="#df947f"/>
              <path id="Path_24921" data-name="Path 24921" d="M94.624,101.036a1.632,1.632,0,1,1,1.8,2.633,2.024,2.024,0,0,1-1.313.035,1.586,1.586,0,0,1-.848-.521,1.452,1.452,0,0,1-.125-1.389,2.194,2.194,0,0,1,.716-.952" transform="translate(-76.491 -73.219)" fill="#df947f"/>
              <g id="Group_51467" data-name="Group 51467" transform="translate(12.643 11.564)">
                <g id="Group_51466" data-name="Group 51466" transform="translate(0.919 4.282)">
                  <g id="Group_51464" data-name="Group 51464" transform="translate(11.22)">
                    <path id="Path_24922" data-name="Path 24922" d="M109.331,87.31a1.093,1.093,0,0,1-1.07,1.07,1.036,1.036,0,0,1-1.091-1,1.093,1.093,0,0,1,1.07-1.07A1.027,1.027,0,0,1,109.331,87.31Z" transform="translate(-105.287 -84.724)" fill="#263238"/>
                    <path id="Path_24923" data-name="Path 24923" d="M108.733,85.217c-.139.139-.945-.486-2.105-.514s-2.036.535-2.154.389c-.063-.063.083-.32.459-.577a2.96,2.96,0,0,1,1.73-.486,2.9,2.9,0,0,1,1.674.584C108.691,84.9,108.8,85.155,108.733,85.217Z" transform="translate(-104.46 -84.028)" fill="#263238"/>
                  </g>
                  <g id="Group_51465" data-name="Group 51465" transform="translate(0 0.007)">
                    <path id="Path_24924" data-name="Path 24924" d="M93.621,87.31a1.093,1.093,0,0,1-1.07,1.07,1.031,1.031,0,0,1-1.091-1,1.093,1.093,0,0,1,1.07-1.07A1.031,1.031,0,0,1,93.621,87.31Z" transform="translate(-89.271 -84.731)" fill="#263238"/>
                    <path id="Path_24925" data-name="Path 24925" d="M92.59,85.227c-.139.139-.945-.486-2.112-.514s-2.036.535-2.154.389c-.063-.063.083-.313.459-.577a2.96,2.96,0,0,1,1.73-.486,2.9,2.9,0,0,1,1.674.584c.347.285.465.542.4.6Z" transform="translate(-88.31 -84.038)" fill="#263238"/>
                  </g>
                  <path id="Path_24926" data-name="Path 24926" d="M99.723,94.076a7.671,7.671,0,0,1,1.9-.3c.3-.021.584-.076.639-.278a1.5,1.5,0,0,0-.181-.889c-.264-.729-.535-1.487-.827-2.286a38.619,38.619,0,0,1-1.834-5.975,38.7,38.7,0,0,1,2.307,5.815c.278.806.535,1.57.785,2.3a1.706,1.706,0,0,1,.125,1.174.739.739,0,0,1-.5.424,1.735,1.735,0,0,1-.507.056,7.892,7.892,0,0,1-1.917-.042Z" transform="translate(-91.698 -84.126)" fill="#263238"/>
                  <path id="Path_24927" data-name="Path 24927" d="M94.8,99.39c.188,0,.16,1.257,1.223,2.181s2.411.82,2.418.993c.014.076-.306.236-.875.243a3.215,3.215,0,0,1-2.022-.757,2.771,2.771,0,0,1-.945-1.827c-.035-.528.111-.841.2-.834Z" transform="translate(-90.228 -88.718)" fill="#263238"/>
                </g>
                <path id="Path_24928" data-name="Path 24928" d="M92.318,78.792c-.125.313-1.285.139-2.654.271-1.376.1-2.487.479-2.661.188-.076-.139.125-.431.577-.729a4.376,4.376,0,0,1,1.987-.639,4.433,4.433,0,0,1,2.063.292c.5.215.743.472.688.618Z" transform="translate(-86.987 -77.865)" fill="#e0e0e0"/>
                <path id="Path_24929" data-name="Path 24929" d="M108.32,80.429c-.208.257-1.007-.035-1.973-.069-.966-.069-1.785.132-1.966-.146-.076-.139.056-.4.417-.639a2.715,2.715,0,0,1,1.612-.4,2.749,2.749,0,0,1,1.563.57C108.306,80.026,108.41,80.3,108.32,80.429Z" transform="translate(-92.29 -78.264)" fill="#e0e0e0"/>
              </g>
              <g id="Group_51468" data-name="Group 51468" transform="translate(0 20.456)">
                <path id="Path_24930" data-name="Path 24930" d="M73.924,90.946c-.125-.063-5.176-1.667-5.134,3.522s5.238,4.078,5.245,3.925-.118-7.448-.118-7.448Z" transform="translate(-68.79 -90.664)" fill="#ffc4af"/>
                <path id="Path_24931" data-name="Path 24931" d="M73.019,97.176a1.711,1.711,0,0,1-.243.132.906.906,0,0,1-.674.021,2.24,2.24,0,0,1-1.049-2,3.012,3.012,0,0,1,.243-1.3,1.045,1.045,0,0,1,.674-.7.463.463,0,0,1,.535.243c.069.146.042.25.069.257s.111-.09.069-.3a.579.579,0,0,0-.208-.327.666.666,0,0,0-.5-.125A1.261,1.261,0,0,0,71,93.89a3.045,3.045,0,0,0-.3,1.445,2.348,2.348,0,0,0,1.334,2.23.974.974,0,0,0,.827-.146c.16-.132.188-.243.167-.257Z" transform="translate(-69.372 -91.398)" fill="#df947f"/>
              </g>
            </g>
            <path id="Path_24932" data-name="Path 24932" d="M112.014,87.266c.007.09-.285.195-.632.32s-.646.208-.695.132.2-.313.591-.445.729-.09.736,0Z" transform="translate(-81.578 -69.147)" fill="#df947f"/>
            <path id="Path_24933" data-name="Path 24933" d="M112.507,88.385c-.014.09-.382.111-.834.111s-.82-.021-.834-.111.361-.222.834-.215S112.521,88.3,112.507,88.385Z" transform="translate(-81.626 -69.447)" fill="#df947f"/>
            <path id="Path_24934" data-name="Path 24934" d="M86.229,87.705c-.007.09-.521.111-1.139.111s-1.132-.021-1.139-.111.5-.215,1.139-.215,1.146.132,1.139.222Z" transform="translate(-73.417 -69.239)" fill="#df947f"/>
            <path id="Path_24935" data-name="Path 24935" d="M86.273,89.2c-.021.09-.459.076-.987.083s-.966.014-.987-.076.417-.257.987-.257S86.294,89.11,86.273,89.2Z" transform="translate(-73.524 -69.685)" fill="#df947f"/>
            <path id="Path_24936" data-name="Path 24936" d="M92.233,91.577a1.487,1.487,0,0,1-.514.445,2.852,2.852,0,0,1-3.147-.3c-.327-.271-.459-.507-.424-.535a4.905,4.905,0,0,0,1.987.834,4.835,4.835,0,0,0,2.105-.445Z" transform="translate(-74.697 -70.366)" fill="#df947f"/>
            <path id="Path_24937" data-name="Path 24937" d="M93.688,91.369c.035.076-.514.368-1.264.368s-1.3-.285-1.264-.361.584.035,1.264.035,1.23-.125,1.264-.035Z" transform="translate(-75.618 -70.415)" fill="#df947f"/>
            <path id="Path_24938" data-name="Path 24938" d="M109.343,90.336a3.165,3.165,0,0,1-1.855.632,3.238,3.238,0,0,1-1.938-.271c.021-.1.868.049,1.9-.056s1.841-.389,1.883-.3Z" transform="translate(-80.011 -70.105)" fill="#df947f"/>
            <path id="Path_24939" data-name="Path 24939" d="M108.657,90.916a2.32,2.32,0,0,1-1.64.9,2.292,2.292,0,0,1-1.848-.285,14.735,14.735,0,0,0,1.792-.042A12.593,12.593,0,0,0,108.657,90.916Z" transform="translate(-79.894 -70.283)" fill="#df947f"/>
            <path id="Path_24940" data-name="Path 24940" d="M102.726,77.452a4.412,4.412,0,0,1-1.313.32,16.549,16.549,0,0,1-3.251.174,17.468,17.468,0,0,1-3.224-.438,4.157,4.157,0,0,1-1.278-.424c.028-.1,2.008.438,4.523.528,2.508.111,4.53-.264,4.551-.16Z" transform="translate(-76.381 -66.059)" fill="#df947f"/>
            <path id="Path_24941" data-name="Path 24941" d="M104.146,76.285a16.093,16.093,0,0,1-4.2.389,15.7,15.7,0,0,1-4.2-.417c.014-.1,1.883.083,4.2.083S104.132,76.188,104.146,76.285Z" transform="translate(-77.017 -65.802)" fill="#df947f"/>
            <path id="Path_24942" data-name="Path 24942" d="M99.271,81.27c-.09-.021-.118-.243-.132-.507s0-.486.1-.514.222.195.236.5-.111.535-.2.514Z" transform="translate(-78.054 -67.028)" fill="#df947f"/>
            <path id="Path_24943" data-name="Path 24943" d="M101.359,81.514c-.028.083-.4-.028-.556-.431s.035-.736.118-.695.076.292.195.57.292.465.25.549Z" transform="translate(-78.544 -67.07)" fill="#df947f"/>
            <path id="Path_24944" data-name="Path 24944" d="M94.077,98.873c0,.1-.368.153-.695.424s-.472.6-.563.591-.083-.493.354-.848.924-.257.9-.167Z" transform="translate(-76.111 -72.688)" fill="#df947f"/>
            <path id="Path_24945" data-name="Path 24945" d="M92.355,98.727c-.021.09-.215.139-.361.32s-.181.368-.271.4c-.042.014-.1-.049-.125-.174a.564.564,0,0,1,.146-.445.552.552,0,0,1,.424-.2c.125,0,.195.063.188.1Z" transform="translate(-75.751 -72.64)" fill="#df947f"/>
            <path id="Path_24946" data-name="Path 24946" d="M84.811,124.039a.67.67,0,0,1-.354-.174,1.618,1.618,0,0,1-.5-.952,4.067,4.067,0,0,1,.063-1.57,3.405,3.405,0,0,0-.007-1.772c-.111-.278-.32-.542-.445-.875a1.62,1.62,0,0,1,0-.98,1.261,1.261,0,0,0,.028-.729,3.386,3.386,0,0,0-.327-.6,1.206,1.206,0,0,1-.2-1.056c.1-.264.292-.292.285-.278.021.021-.118.1-.16.313a1.115,1.115,0,0,0,.278.889,3.293,3.293,0,0,1,.389.639,1.494,1.494,0,0,1,.014.889,1.328,1.328,0,0,0,0,.806c.1.264.306.521.445.861a3.423,3.423,0,0,1,0,1.945,4.236,4.236,0,0,0-.132,1.48,1.587,1.587,0,0,0,.361.9c.153.174.278.243.264.264Z" transform="translate(-73.132 -77.651)" fill="#df947f"/>
            <path id="Path_24947" data-name="Path 24947" d="M88.959,125.015a.626.626,0,0,1-.389-.132,1.905,1.905,0,0,1-.618-.931,16.9,16.9,0,0,1-.848-3.5,7.536,7.536,0,0,1-.035-1.042,6.113,6.113,0,0,0,.028-.924c-.028-.57-.577-.771-.938-1.1a1.021,1.021,0,0,1-.34-.584.582.582,0,0,1,.181-.486c.236-.208.431-.083.4-.076,0,.028-.167-.021-.313.16a.439.439,0,0,0-.09.368.824.824,0,0,0,.313.438c.16.139.382.243.618.424a1.2,1.2,0,0,1,.472.82,6.491,6.491,0,0,1,0,.973,6.912,6.912,0,0,0,.042.993,23.409,23.409,0,0,0,.743,3.46,1.965,1.965,0,0,0,.479.9c.174.167.32.208.306.236Z" transform="translate(-73.987 -78.003)" fill="#df947f"/>
          </g>
          <path id="Path_24948" data-name="Path 24948" d="M103.47,67.808a9.043,9.043,0,0,1-13.818-.6,5.907,5.907,0,0,1-9.893.535,16.038,16.038,0,0,1-.848,10.907,4.939,4.939,0,0,1-1.327,1.89,3.478,3.478,0,0,1-2.828.514c-.646-.327-.34-1.2-.591-1.883a15.255,15.255,0,0,1,28.269-11.442" transform="translate(-64.388 -52.836)" fill="#e0e0e0"/>
          <path id="Path_24949" data-name="Path 24949" d="M66.9,75.669c.035-.056.625.333,1.667.729a10.459,10.459,0,0,0,4.259.639,9.058,9.058,0,0,0,4.106-1.23,4.193,4.193,0,0,0,1.223-1.278,2.308,2.308,0,0,1-1.077,1.494A8.43,8.43,0,0,1,72.843,77.4a9.494,9.494,0,0,1-4.384-.764,8.009,8.009,0,0,1-1.188-.653c-.264-.188-.4-.3-.382-.32Z" transform="translate(-62.447 -57.696)" fill="#fafafa"/>
          <path id="Path_24950" data-name="Path 24950" d="M67.75,79.584a17.118,17.118,0,0,0,5.537.785,17.255,17.255,0,0,0,5.419-1.383,4.756,4.756,0,0,1-1.452.827,11.749,11.749,0,0,1-7.955.431,4.941,4.941,0,0,1-1.535-.667Z" transform="translate(-62.71 -59.055)" fill="#fafafa"/>
          <path id="Path_24951" data-name="Path 24951" d="M105.882,63.781c-.042,0,.035-.514-.076-1.424a7.273,7.273,0,0,0-1.48-3.5,6.8,6.8,0,0,0-4.835-2.626,10.935,10.935,0,0,0-6.635,1.716,12.882,12.882,0,0,0-1.487,1.077c-.472.382-.855.834-1.348,1.216a2.368,2.368,0,0,1-.841.438,1.51,1.51,0,0,1-.959-.069,4.82,4.82,0,0,1-1.348-1.077,4.518,4.518,0,0,0-2.682-1.188,4.437,4.437,0,0,0-2.529.493A4.707,4.707,0,0,0,79.4,61.78a6.645,6.645,0,0,0-.174,1.4,1.208,1.208,0,0,1-.056-.368,4.657,4.657,0,0,1,2.369-4.2,4.632,4.632,0,0,1,2.675-.57A4.846,4.846,0,0,1,87.1,59.279a4.923,4.923,0,0,0,1.251,1,1.417,1.417,0,0,0,1.452-.333c.445-.347.848-.82,1.334-1.209a12.285,12.285,0,0,1,1.528-1.112,11.11,11.11,0,0,1,6.864-1.737,7.185,7.185,0,0,1,2.987.966,6.839,6.839,0,0,1,2.022,1.834,7.169,7.169,0,0,1,1.417,3.64,4.886,4.886,0,0,1,0,1.07,1.323,1.323,0,0,1-.063.368Z" transform="translate(-66.195 -51.991)" fill="#fafafa"/>
          <path id="Path_24952" data-name="Path 24952" d="M66.863,76.17a9.872,9.872,0,0,1,.188,1.647c.1,1.014.257,2.411.542,3.939a34.642,34.642,0,0,0,.931,3.863c.3.973.57,1.542.514,1.57A4.883,4.883,0,0,1,68.28,85.7a23.076,23.076,0,0,1-1.049-3.877,27.869,27.869,0,0,1-.445-3.988,6.472,6.472,0,0,1,.069-1.66Z" transform="translate(-62.413 -58.197)" fill="#fafafa"/>
        </g>
        <path id="Path_24953" data-name="Path 24953" d="M55.9,131.617a3.766,3.766,0,0,1,.479.34,9.693,9.693,0,0,1,1.139,1.119,12.333,12.333,0,0,1,1.389,1.931,13.542,13.542,0,0,1,1.792,5.516,12.28,12.28,0,0,1,0,2.376,9.025,9.025,0,0,1-.264,1.577c-.1.368-.16.563-.188.556-.063-.014.132-.827.195-2.154a14.506,14.506,0,0,0-.083-2.327,15.925,15.925,0,0,0-.6-2.779,16.417,16.417,0,0,0-1.139-2.605,15.2,15.2,0,0,0-1.3-1.931c-.834-1.035-1.466-1.577-1.424-1.626Z" transform="translate(-38.838 -75.121)" fill="#263238"/>
      </g>
    </g>
    <g id="Character_2" data-name="Character 2" transform="translate(99.461 78.403)">
      <g id="Group_51495" data-name="Group 51495">
        <path id="Path_24954" data-name="Path 24954" d="M197.416,166.754l1.869,1.89c3.779.785,10.136,2.105,12.7,6.211,2.112,3.376,10.727,17.091,15.784,25.143a69.613,69.613,0,0,1,6.239,12.589l6.336,16.861L217.5,243.592H184.73L166.25,172.3l9.831-5.377,1.952-3.321,15.583,8.705,2.723,3.432,1.077-8.969Z" transform="translate(-140.642 -121.624)" fill="#005f9a"/>
        <g id="Group_51480" data-name="Group 51480" transform="translate(0 62.617)">
          <path id="Path_24955" data-name="Path 24955" d="M166.2,193.7,178.2,247l-18.9-.215L148.634,198.5l-16.771-.188a2.5,2.5,0,0,1-2.473-2.529h0a2.5,2.5,0,0,1,2.529-2.473Z" transform="translate(-129.39 -193.31)" fill="#263238"/>
          <g id="Group_51474" data-name="Group 51474" transform="translate(150.188 122.072)">
            <path id="Path_24956" data-name="Path 24956" d="M360.437,369.02l2.369,15.423s16.472,2.772,17.188,5.586l-29.749,5.662-4.676-23.885,14.86-2.786Z" transform="translate(-345.57 -369.02)" fill="#ff725e"/>
            <g id="Group_51473" data-name="Group 51473" transform="translate(0)">
              <path id="Path_24957" data-name="Path 24957" d="M360.437,369.02l2.369,15.423s16.472,2.772,17.188,5.586l-29.749,5.662-4.676-23.885,14.86-2.786Z" transform="translate(-345.57 -369.02)" fill="#034b77"/>
            </g>
            <path id="Path_24958" data-name="Path 24958" d="M356.5,391.84a1.235,1.235,0,0,0-.577,1.549,1.19,1.19,0,0,0,1.528.584,1.314,1.314,0,0,0,.6-1.64,1.227,1.227,0,0,0-1.654-.431" transform="translate(-348.702 -375.952)" fill="#263238"/>
            <path id="Path_24959" data-name="Path 24959" d="M352.112,404.357l-.452-2.313,28.734-4.634s1.431.327,1.459,1.285L352.1,404.357Z" transform="translate(-347.429 -377.686)" fill="#263238"/>
            <path id="Path_24960" data-name="Path 24960" d="M369.971,390.838c.021.146-.688.347-1.313.952-.639.584-.889,1.285-1.035,1.258-.139,0-.09-.91.681-1.633S369.978,390.7,369.971,390.838Z" transform="translate(-352.283 -375.658)" fill="#263238"/>
            <path id="Path_24961" data-name="Path 24961" d="M375.164,391.853c.063.132-.521.5-.9,1.209-.4.695-.4,1.383-.542,1.4-.132.049-.4-.785.09-1.653s1.32-1.1,1.348-.959Z" transform="translate(-354.107 -375.978)" fill="#263238"/>
            <path id="Path_24962" data-name="Path 24962" d="M379.311,395.565c-.125.056-.465-.632-.243-1.5s.841-1.313.924-1.2c.1.1-.257.611-.424,1.327-.188.709-.111,1.327-.257,1.369Z" transform="translate(-355.773 -376.293)" fill="#263238"/>
            <path id="Path_24963" data-name="Path 24963" d="M368.344,385.767c-.035.146-.743.07-1.549.285-.813.195-1.4.591-1.5.479-.1-.09.417-.743,1.376-.98S368.393,385.642,368.344,385.767Z" transform="translate(-351.587 -374.04)" fill="#263238"/>
          </g>
          <g id="Group_51475" data-name="Group 51475" transform="translate(140.149 122.92)">
            <path id="Path_24964" data-name="Path 24964" d="M345.987,370.24l2.369,15.423s16.472,2.772,17.188,5.586L335.8,396.911l-4.676-23.885,14.86-2.786Z" transform="translate(-331.12 -370.24)" fill="#005f9a"/>
            <path id="Path_24965" data-name="Path 24965" d="M342.037,393.06a1.237,1.237,0,0,0-.577,1.549,1.19,1.19,0,0,0,1.528.584,1.314,1.314,0,0,0,.6-1.64,1.227,1.227,0,0,0-1.653-.431" transform="translate(-334.249 -377.172)" fill="#263238"/>
            <path id="Path_24966" data-name="Path 24966" d="M337.662,405.587l-.452-2.313,28.734-4.634s1.431.327,1.459,1.285l-29.749,5.662Z" transform="translate(-332.979 -378.909)" fill="#263238"/>
            <path id="Path_24967" data-name="Path 24967" d="M355.521,392.068c.021.146-.688.347-1.313.952-.639.584-.889,1.285-1.035,1.257-.139,0-.09-.91.681-1.633S355.528,391.929,355.521,392.068Z" transform="translate(-337.833 -376.881)" fill="#263238"/>
            <path id="Path_24968" data-name="Path 24968" d="M360.7,393.083c.063.132-.521.5-.9,1.209-.4.695-.4,1.383-.542,1.4-.132.049-.4-.785.09-1.654S360.676,392.944,360.7,393.083Z" transform="translate(-339.654 -377.202)" fill="#263238"/>
            <path id="Path_24969" data-name="Path 24969" d="M364.861,396.8c-.125.056-.465-.632-.243-1.5s.841-1.313.924-1.2c.1.1-.257.611-.424,1.327-.188.709-.111,1.327-.257,1.369Z" transform="translate(-341.323 -377.516)" fill="#263238"/>
            <path id="Path_24970" data-name="Path 24970" d="M353.894,386.987c-.035.146-.743.069-1.549.285-.813.195-1.4.591-1.5.479-.1-.09.417-.743,1.376-.98S353.943,386.862,353.894,386.987Z" transform="translate(-337.137 -375.26)" fill="#263238"/>
          </g>
          <g id="Group_51476" data-name="Group 51476" transform="translate(47.02 42.803)">
            <path id="Path_24971" data-name="Path 24971" d="M239.535,254.95s54.085.882,58.941.667c10.261-.465,14.27,6.468,15.666,16.292.431,3.008,8.17,68.987,8.17,68.987l-18.73,3.87-12.714-59.977s-49.986,1.792-54.711,2.6c-5.752.98-13.686,4.043-18.015.681s-6.954-20.6-6.954-20.6l28.345-12.519Z" transform="translate(-201.38 -254.929)" fill="#263238"/>
            <path id="Path_24972" data-name="Path 24972" d="M231.036,254.92s48.465.792,53.321.57c10.261-.465,14.27,6.468,15.666,16.292.431,3.008,8.17,70.988,8.17,70.988L284,348.154l-11.088-62.867s-46.145,1.167-50.869,1.973c-5.752.98-13.686,4.043-18.015.681s-6.954-20.6-6.954-20.6l33.966-12.422Z" transform="translate(-197.07 -254.92)" fill="#263238"/>
            <path id="Path_24973" data-name="Path 24973" d="M317.31,255.762s.09.007.257.007c.188,0,.438,0,.757-.007.667.014,1.647.021,2.9.153a30.815,30.815,0,0,1,4.516.785,20.434,20.434,0,0,1,2.716.875,11.82,11.82,0,0,1,2.793,1.515,5.535,5.535,0,0,1,1.188,1.195,11.217,11.217,0,0,1,.9,1.542,19.192,19.192,0,0,1,1.334,3.564,67.893,67.893,0,0,1,1.452,8.33c.813,5.912,1.64,12.429,2.473,19.265,1.654,13.686,3.078,26.087,4.252,35.043.577,4.481,1.084,8.1,1.445,10.6.188,1.23.333,2.2.431,2.876.049.313.09.563.125.743a1.057,1.057,0,0,0,.056.25s0-.09-.014-.257l-.083-.75c-.083-.681-.208-1.647-.368-2.883-.32-2.529-.771-6.148-1.327-10.616-1.063-8.99-2.529-21.37-4.148-35.056-.827-6.843-1.667-13.353-2.5-19.272a65.278,65.278,0,0,0-1.494-8.358,19.459,19.459,0,0,0-1.376-3.613,11.727,11.727,0,0,0-.938-1.57,5.891,5.891,0,0,0-1.251-1.244,11.457,11.457,0,0,0-2.862-1.528,20.34,20.34,0,0,0-2.758-.855,30.514,30.514,0,0,0-4.551-.73,19.363,19.363,0,0,0-3.925-.007Z" transform="translate(-233.775 -255.15)" fill="#455a64"/>
          </g>
          <g id="Group_51479" data-name="Group 51479" transform="translate(15.983 52.342)">
            <path id="Path_24974" data-name="Path 24974" d="M172.067,268.65l2.432,35.334,79.235.243a7.741,7.741,0,0,0,7.76-7.649h0a7.739,7.739,0,0,0-7.482-7.823l-6.857-.222.368-15.048a3.95,3.95,0,0,0-3.9-4.043l-71.565-.792Z" transform="translate(-158.398 -268.65)" fill="#455a64"/>
            <g id="Group_51478" data-name="Group 51478" transform="translate(0 4.457)">
              <rect id="Rectangle_31" data-name="Rectangle 31" width="4.634" height="46.645" transform="matrix(1, 0.011, -0.011, 1, 44.772, 21.267)" fill="#455a64"/>
              <rect id="Rectangle_32" data-name="Rectangle 32" width="65.826" height="3.891" transform="matrix(1, 0.011, -0.011, 1, 44.286, 63.828)" fill="#455a64"/>
              <path id="Path_24975" data-name="Path 24975" d="M205.152,372.372a44.651,44.651,0,1,1,.514,0ZM175.341,297.32a43.356,43.356,0,1,0,30.8-12.352h-.5a43.082,43.082,0,0,0-30.3,12.352Z" transform="translate(-155.204 -277.871)" fill="#e0e0e0"/>
              <g id="Group_51477" data-name="Group 51477" transform="translate(6.624 7.041)">
                <path id="Path_24976" data-name="Path 24976" d="M247.183,348.458c-12.026-.146-21.773-.271-21.773-.278s9.747.1,21.773.243,21.766.271,21.766.278S259.2,348.6,247.183,348.458Z" transform="translate(-181.308 -304.425)" fill="#e0e0e0"/>
                <path id="Path_24977" data-name="Path 24977" d="M246.85,352.09C235,350,225.41,348.3,225.41,348.29s9.6,1.681,21.447,3.772,21.433,3.793,21.433,3.8-9.6-1.681-21.44-3.772Z" transform="translate(-181.308 -304.459)" fill="#e0e0e0"/>
                <path id="Path_24978" data-name="Path 24978" d="M245.932,355.594c-11.338-4.009-20.529-7.26-20.523-7.274s9.191,3.237,20.536,7.246,20.523,7.26,20.516,7.267-9.2-3.237-20.53-7.239Z" transform="translate(-181.308 -304.468)" fill="#e0e0e0"/>
                <path id="Path_24979" data-name="Path 24979" d="M244.45,358.9c-10.525-5.815-19.057-10.532-19.05-10.539s8.538,4.7,19.071,10.511,19.05,10.532,19.05,10.539-8.538-4.7-19.064-10.511Z" transform="translate(-181.305 -304.48)" fill="#e0e0e0"/>
                <path id="Path_24980" data-name="Path 24980" d="M242.434,361.929c-9.441-7.455-17.084-13.5-17.084-13.5s7.663,6.03,17.1,13.478,17.084,13.492,17.077,13.5-7.663-6.03-17.1-13.478Z" transform="translate(-181.29 -304.502)" fill="#e0e0e0"/>
                <path id="Path_24981" data-name="Path 24981" d="M239.956,364.59c-8.108-8.886-14.673-16.09-14.666-16.09s6.579,7.191,14.687,16.076,14.666,16.083,14.666,16.09-6.579-7.191-14.687-16.069Z" transform="translate(-181.271 -304.523)" fill="#e0e0e0"/>
                <path id="Path_24982" data-name="Path 24982" d="M237.079,366.818c-6.558-10.081-11.866-18.258-11.859-18.258s5.329,8.163,11.887,18.244,11.866,18.251,11.859,18.258-5.329-8.163-11.88-18.237Z" transform="translate(-181.25 -304.541)" fill="#e0e0e0"/>
                <path id="Path_24983" data-name="Path 24983" d="M233.889,368.533c-4.821-11.019-8.726-19.946-8.719-19.953s3.925,8.92,8.747,19.939,8.726,19.939,8.719,19.946S238.71,379.537,233.889,368.533Z" transform="translate(-181.235 -304.548)" fill="#e0e0e0"/>
                <path id="Path_24984" data-name="Path 24984" d="M230.472,369.713c-2.946-11.658-5.336-21.113-5.322-21.113s2.4,9.448,5.356,21.106,5.329,21.106,5.322,21.106-2.4-9.448-5.349-21.1Z" transform="translate(-181.229 -304.554)" fill="#e0e0e0"/>
                <path id="Path_24985" data-name="Path 24985" d="M226.9,370.307c-1-11.984-1.806-21.7-1.8-21.7s.827,9.712,1.827,21.7,1.806,21.69,1.8,21.69S227.9,382.284,226.9,370.307Z" transform="translate(-181.213 -304.557)" fill="#e0e0e0"/>
                <path id="Path_24986" data-name="Path 24986" d="M221.748,370.314c.938-11.991,1.709-21.7,1.716-21.7s-.743,9.719-1.688,21.711-1.709,21.7-1.716,21.7.75-9.719,1.688-21.7Z" transform="translate(-179.675 -304.557)" fill="#e0e0e0"/>
                <path id="Path_24987" data-name="Path 24987" d="M215.061,369.734c2.883-11.678,5.231-21.134,5.238-21.134s-2.327,9.462-5.211,21.141-5.231,21.127-5.238,21.127S212.177,381.4,215.061,369.734Z" transform="translate(-176.558 -304.554)" fill="#e0e0e0"/>
                <path id="Path_24988" data-name="Path 24988" d="M208.645,368.578c4.766-11.039,8.636-19.988,8.643-19.988s-3.849,8.955-8.615,19.995-8.636,19.981-8.643,19.981,3.849-8.955,8.615-19.988Z" transform="translate(-173.56 -304.551)" fill="#e0e0e0"/>
                <path id="Path_24989" data-name="Path 24989" d="M202.672,366.879c6.51-10.115,11.79-18.306,11.8-18.3s-5.259,8.2-11.769,18.32-11.783,18.3-11.79,18.3,5.266-8.2,11.769-18.313Z" transform="translate(-170.776 -304.548)" fill="#e0e0e0"/>
                <path id="Path_24990" data-name="Path 24990" d="M197.309,364.669c8.066-8.92,14.6-16.146,14.61-16.139s-6.524,7.239-14.589,16.16-14.6,16.146-14.61,16.139S189.244,373.589,197.309,364.669Z" transform="translate(-168.276 -304.532)" fill="#e0e0e0"/>
                <path id="Path_24991" data-name="Path 24991" d="M192.687,362.021c9.407-7.5,17.028-13.568,17.035-13.561s-7.614,6.086-17.014,13.582S175.68,375.6,175.68,375.6s7.614-6.086,17.014-13.582Z" transform="translate(-166.127 -304.511)" fill="#e0e0e0"/>
                <path id="Path_24992" data-name="Path 24992" d="M188.924,359.009c10.5-5.871,19.008-10.616,19.015-10.609s-8.5,4.766-19,10.636-19.008,10.616-19.008,10.609,8.5-4.766,18.994-10.629Z" transform="translate(-164.372 -304.493)" fill="#e0e0e0"/>
                <path id="Path_24993" data-name="Path 24993" d="M186.121,355.71c11.317-4.071,20.495-7.357,20.495-7.35s-9.164,3.314-20.488,7.378-20.488,7.357-20.488,7.35S174.811,359.775,186.121,355.71Z" transform="translate(-163.062 -304.48)" fill="#e0e0e0"/>
                <path id="Path_24994" data-name="Path 24994" d="M184.362,352.214c11.831-2.154,21.426-3.9,21.426-3.884s-9.587,1.758-21.419,3.918-21.419,3.891-21.419,3.884,9.587-1.758,21.412-3.911Z" transform="translate(-162.241 -304.471)" fill="#e0e0e0"/>
                <path id="Path_24995" data-name="Path 24995" d="M183.7,348.594c12.026-.2,21.773-.361,21.773-.354s-9.747.181-21.773.382-21.766.361-21.766.354S171.677,348.8,183.7,348.594Z" transform="translate(-161.93 -304.444)" fill="#e0e0e0"/>
                <path id="Path_24996" data-name="Path 24996" d="M184.127,342.18c11.9,1.744,21.544,3.161,21.544,3.168s-9.643-1.4-21.544-3.14-21.537-3.161-21.537-3.168S172.24,340.436,184.127,342.18Z" transform="translate(-162.131 -301.635)" fill="#e0e0e0"/>
                <path id="Path_24997" data-name="Path 24997" d="M185.651,335.591c11.456,3.668,20.731,6.649,20.731,6.663s-9.289-2.96-20.738-6.628-20.724-6.649-20.724-6.656,9.289,2.96,20.731,6.628Z" transform="translate(-162.843 -298.561)" fill="#e0e0e0"/>
                <path id="Path_24998" data-name="Path 24998" d="M188.242,329.329c10.692,5.5,19.362,9.963,19.355,9.969s-8.677-4.446-19.369-9.949-19.355-9.963-19.348-9.969,8.677,4.446,19.362,9.942Z" transform="translate(-164.052 -295.634)" fill="#e0e0e0"/>
                <path id="Path_24999" data-name="Path 24999" d="M191.82,323.594c9.657,7.17,17.473,12.992,17.473,13s-7.83-5.8-17.487-12.971-17.473-12.985-17.466-12.992,7.837,5.8,17.48,12.971Z" transform="translate(-165.718 -292.963)" fill="#e0e0e0"/>
                <path id="Path_25000" data-name="Path 25000" d="M196.265,318.512c8.365,8.643,15.138,15.652,15.131,15.659s-6.788-7-15.152-15.639-15.131-15.646-15.124-15.652S187.908,309.876,196.265,318.512Z" transform="translate(-167.788 -290.597)" fill="#e0e0e0"/>
                <path id="Path_25001" data-name="Path 25001" d="M201.488,314.233c6.85,9.886,12.4,17.9,12.394,17.9s-5.565-8-12.415-17.889-12.394-17.9-12.387-17.9,5.565,8,12.415,17.883Z" transform="translate(-170.218 -288.604)" fill="#e0e0e0"/>
                <path id="Path_25002" data-name="Path 25002" d="M207.33,310.845c5.148,10.873,9.309,19.682,9.3,19.682s-4.182-8.8-9.33-19.675-9.309-19.675-9.3-19.682,4.182,8.8,9.33,19.668Z" transform="translate(-172.941 -287.022)" fill="#e0e0e0"/>
                <path id="Path_25003" data-name="Path 25003" d="M213.665,308.462c3.293,11.567,5.954,20.946,5.947,20.946s-2.682-9.372-5.975-20.939-5.954-20.939-5.947-20.939,2.682,9.372,5.975,20.932Z" transform="translate(-175.899 -285.911)" fill="#e0e0e0"/>
                <path id="Path_25004" data-name="Path 25004" d="M220.309,307.144c1.355,11.95,2.445,21.634,2.439,21.634s-1.112-9.685-2.466-21.634-2.445-21.627-2.432-21.634,1.112,9.685,2.466,21.627Z" transform="translate(-179 -285.295)" fill="#e0e0e0"/>
                <path id="Path_25005" data-name="Path 25005" d="M226.114,306.938c-.591,12.012-1.077,21.745-1.084,21.745s.465-9.733,1.056-21.745,1.077-21.738,1.084-21.738-.465,9.74-1.056,21.745Z" transform="translate(-181.192 -285.2)" fill="#e0e0e0"/>
                <path id="Path_25006" data-name="Path 25006" d="M229.713,307.82c-2.543,11.755-4.606,21.28-4.613,21.28s2.043-9.532,4.585-21.287,4.606-21.273,4.613-21.273-2.043,9.532-4.585,21.28Z" transform="translate(-181.213 -285.609)" fill="#e0e0e0"/>
                <path id="Path_25007" data-name="Path 25007" d="M233.175,309.788c-4.439,11.178-8.038,20.238-8.045,20.231s3.585-9.066,8.017-20.245,8.038-20.231,8.045-20.224S237.607,298.616,233.175,309.788Z" transform="translate(-181.223 -286.528)" fill="#e0e0e0"/>
                <path id="Path_25008" data-name="Path 25008" d="M236.425,312.8c-6.211,10.3-11.248,18.647-11.255,18.64s5.016-8.358,11.227-18.654,11.241-18.64,11.248-18.633-5.023,8.358-11.227,18.654Z" transform="translate(-181.235 -287.932)" fill="#e0e0e0"/>
                <path id="Path_25009" data-name="Path 25009" d="M239.378,316.746c-7.8,9.157-14.131,16.569-14.138,16.563s6.308-7.427,14.11-16.583,14.124-16.563,14.131-16.556-6.315,7.427-14.11,16.576Z" transform="translate(-181.256 -289.77)" fill="#e0e0e0"/>
                <path id="Path_25010" data-name="Path 25010" d="M241.942,321.518c-9.184,7.767-16.625,14.061-16.632,14.055s7.434-6.308,16.611-14.075,16.625-14.055,16.625-14.048-7.434,6.308-16.611,14.068Z" transform="translate(-181.278 -291.992)" fill="#e0e0e0"/>
                <path id="Path_25011" data-name="Path 25011" d="M244.055,327.018c-10.324,6.176-18.688,11.171-18.7,11.164s8.358-5.016,18.681-11.185,18.681-11.164,18.688-11.157-8.358,5.016-18.674,11.185Z" transform="translate(-181.293 -294.553)" fill="#e0e0e0"/>
                <path id="Path_25012" data-name="Path 25012" d="M245.655,333.082c-11.192,4.4-20.265,7.962-20.265,7.955s9.066-3.578,20.259-7.983,20.259-7.962,20.266-7.955-9.066,3.585-20.252,7.983Z" transform="translate(-181.302 -297.38)" fill="#e0e0e0"/>
                <path id="Path_25013" data-name="Path 25013" d="M246.7,339.564c-11.762,2.5-21.3,4.523-21.3,4.516s9.532-2.043,21.294-4.544,21.294-4.523,21.294-4.516S258.456,337.063,246.7,339.564Z" transform="translate(-181.305 -300.408)" fill="#e0e0e0"/>
                <path id="Path_25014" data-name="Path 25014" d="M247.162,346.274c-12.012.549-21.752.993-21.752.98s9.733-.459,21.752-1.014,21.745-.993,21.745-.98S259.167,345.718,247.162,346.274Z" transform="translate(-181.308 -303.534)" fill="#e0e0e0"/>
              </g>
              <path id="Path_25015" data-name="Path 25015" d="M227.295,346.84a3.192,3.192,0,1,1-3.154-3.23A3.2,3.2,0,0,1,227.295,346.84Z" transform="translate(-173.31 -295.989)" fill="#455a64"/>
              <path id="Path_25016" data-name="Path 25016" d="M302.7,385.41a12.444,12.444,0,1,0,12.3,12.582A12.445,12.445,0,0,0,302.7,385.41Zm-.25,22.1a9.657,9.657,0,1,1,9.768-9.546A9.655,9.655,0,0,1,302.451,407.509Z" transform="translate(-194.437 -308.749)" fill="#263238"/>
              <path id="Path_25017" data-name="Path 25017" d="M304.928,371.067l-2.987-.035.75-66.327-10.491-.118.035-2.987,13.471.153Z" transform="translate(-195.072 -283.165)" fill="#455a64"/>
              <path id="Path_25018" data-name="Path 25018" d="M323.968,377.148c0-.375.438-54.829.271-65.139a6.266,6.266,0,0,0-2.154-4.96c-4.064-3.481-12.415-2.369-12.5-2.362l-.417-2.96c.4-.056,9.761-1.313,14.853,3.043a9.231,9.231,0,0,1,3.2,7.191c.167,10.345-.271,64.833-.271,65.208Z" transform="translate(-200.253 -283.14)" fill="#455a64"/>
              <rect id="Rectangle_33" data-name="Rectangle 33" width="23.934" height="2.918" transform="matrix(1, 0.011, -0.011, 1, 123.516, 91.597)" fill="#455a64"/>
              <path id="Path_25019" data-name="Path 25019" d="M203.413,275.069a50.448,50.448,0,1,0,49.875,51.014,50.454,50.454,0,0,0-49.875-51.014ZM202.3,373.353c-25.893-.292-46.638-21.947-46.339-48.375s21.53-47.6,47.423-47.312,46.638,21.947,46.339,48.375-21.53,47.6-47.423,47.312Z" transform="translate(-152.395 -275.065)" fill="#263238"/>
            </g>
          </g>
        </g>
        <rect id="Rectangle_34" data-name="Rectangle 34" width="2.647" height="17.042" transform="translate(96.374 106.462)" fill="#455a64"/>
        <path id="Path_25020" data-name="Path 25020" d="M200.845,177.375a8.881,8.881,0,0,1-.827-.66A13.966,13.966,0,0,1,198,174.61h.208a5.987,5.987,0,0,0-.75,3.731l.014.181H197.3a10.587,10.587,0,0,1-5.273-1.966,38.829,38.829,0,0,1-4.092-3.328,27.541,27.541,0,0,0-3.363-2.619,13.563,13.563,0,0,0-3.578-1.591.935.935,0,0,1,.278.021,5.475,5.475,0,0,1,.771.167,10.652,10.652,0,0,1,2.661,1.181,25.831,25.831,0,0,1,3.453,2.584,41.954,41.954,0,0,0,4.078,3.279,10.386,10.386,0,0,0,5.085,1.931l-.174.174a6.132,6.132,0,0,1,.875-3.884l.1-.146.1.146a16.668,16.668,0,0,0,1.9,2.14,6.339,6.339,0,0,1,.729.764Z" transform="translate(-145.141 -123.276)" fill="#263238"/>
        <path id="Path_25021" data-name="Path 25021" d="M197.763,246.554a8.542,8.542,0,0,1-1.73-1.084,26.217,26.217,0,0,1-6.683-7.2,8.133,8.133,0,0,1-.952-1.806,18.409,18.409,0,0,1,1.167,1.667,33.9,33.9,0,0,0,6.628,7.135,19.548,19.548,0,0,1,1.577,1.285Z" transform="translate(-147.402 -143.865)" fill="#263238"/>
        <g id="Group_51488" data-name="Group 51488" transform="translate(30.944)">
          <path id="Path_25022" data-name="Path 25022" d="M212.2,171.574a6.614,6.614,0,0,1,.257,1.591,29.61,29.61,0,0,1,.1,3.946l-.028.625-.313-.549c-.076-.139-.16-.285-.243-.431a14.285,14.285,0,0,0-1.487-2.056l.278-.056c-.66,1.924-.9,3.321-.98,3.307a3.172,3.172,0,0,1,.076-.966,17.374,17.374,0,0,1,.591-2.445l.083-.271.195.208a12.476,12.476,0,0,1,1.549,2.091q.125.229.25.438l-.34.076c.069-1.542.049-2.925.021-3.918a9.949,9.949,0,0,1-.014-1.6Z" transform="translate(-184.87 -124.054)" fill="#263238"/>
          <path id="Path_25023" data-name="Path 25023" d="M225.66,174.447a25.069,25.069,0,0,1,10.268,7.329c5.009,5.725,22.329,35.591,22.6,35.591s-7.593-1.118-7.593-1.118L225.66,174.44Z" transform="translate(-189.721 -124.933)" fill="#005f9a"/>
          <g id="Group_51482" data-name="Group 51482">
            <g id="Group_51481" data-name="Group 51481">
              <path id="Path_25024" data-name="Path 25024" d="M207.347,121.945a3.5,3.5,0,0,0,1.737-5.516,7.316,7.316,0,0,1-1.167-1.466c-.535-1.244.431-2.668.188-3.995a3.722,3.722,0,0,0-2.584-2.494,13.954,13.954,0,0,1-3.467-1.424c-.931-.681-1.535-1.716-2.411-2.459a5.027,5.027,0,0,0-4.537-.98c-1.591.452-2.925,1.688-4.571,1.876a21.031,21.031,0,0,1-3.585-.389,6,6,0,0,0-6.016,4.488,7.261,7.261,0,0,1-1.292,3.119c-.98,1.216-2.675,1.619-3.439,2.973a3.486,3.486,0,0,0-.042,2.709,9.029,9.029,0,0,1,.646,2.7,3.3,3.3,0,0,1-2.564,3.092,3.3,3.3,0,0,0,1.7,2.029,3.772,3.772,0,0,1-2.015.472,6.657,6.657,0,0,0,8.837,3.967" transform="translate(-173.93 -103.257)" fill="#e0e0e0"/>
              <path id="Path_25025" data-name="Path 25025" d="M181.751,138.448c-.132-.063-5.308-1.674-5.231,3.64s5.391,4.141,5.4,3.988S181.751,138.448,181.751,138.448Z" transform="translate(-174.72 -113.861)" fill="#ffc4af"/>
              <path id="Path_25026" data-name="Path 25026" d="M180.866,144.849a1.29,1.29,0,0,1-.25.139.924.924,0,0,1-.695.021,2.294,2.294,0,0,1-1.091-2.036,3.018,3.018,0,0,1,.243-1.327,1.082,1.082,0,0,1,.688-.723.474.474,0,0,1,.549.243c.076.146.042.257.069.264s.111-.09.069-.313a.573.573,0,0,0-.215-.327.678.678,0,0,0-.514-.125,1.293,1.293,0,0,0-.952.841,3.219,3.219,0,0,0-.3,1.487,2.394,2.394,0,0,0,1.383,2.272,1.015,1.015,0,0,0,.848-.153c.16-.132.188-.25.167-.264Z" transform="translate(-175.315 -114.621)" fill="#df947f"/>
              <path id="Path_25027" data-name="Path 25027" d="M210.7,140.082c.111-3.752-.285-11.484-.729-18.487a14.473,14.473,0,0,0-14.187-13.561l-.75-.014c-8.087.333-12.325,7.385-11.769,15.458l.7,23.559,14.833,8.281,2.723,3.432.445-3.7.716-6.141s7.788-1.07,8.017-8.837Z" transform="translate(-176.766 -104.657)" fill="#ffc4af"/>
              <path id="Path_25028" data-name="Path 25028" d="M206.824,165.537a18.064,18.064,0,0,1-10.074-3.057s2.084,5.752,9.844,5.19l.229-2.14Z" transform="translate(-180.896 -121.282)" fill="#df947f"/>
              <path id="Path_25029" data-name="Path 25029" d="M218.156,134.631a1.107,1.107,0,0,1-1.091,1.1,1.061,1.061,0,0,1-1.125-1.021,1.112,1.112,0,0,1,1.091-1.1A1.062,1.062,0,0,1,218.156,134.631Z" transform="translate(-186.754 -112.469)" fill="#263238"/>
              <path id="Path_25030" data-name="Path 25030" d="M201.5,134.631a1.107,1.107,0,0,1-1.091,1.1,1.061,1.061,0,0,1-1.125-1.021,1.107,1.107,0,0,1,1.091-1.1A1.062,1.062,0,0,1,201.5,134.631Z" transform="translate(-181.668 -112.469)" fill="#263238"/>
              <path id="Path_25031" data-name="Path 25031" d="M217.407,131.859c-.139.139-.966-.493-2.161-.514s-2.077.563-2.2.417c-.063-.063.083-.327.465-.6a3.067,3.067,0,0,1,1.772-.514,2.857,2.857,0,0,1,1.716.591C217.358,131.525,217.476,131.789,217.407,131.859Z" transform="translate(-185.866 -111.565)" fill="#263238"/>
              <path id="Path_25032" data-name="Path 25032" d="M200.971,131.472c-.146.132-.938-.556-2.126-.646-1.188-.111-2.112.431-2.23.278-.056-.07.1-.32.507-.563a3.066,3.066,0,0,1,1.8-.4,2.9,2.9,0,0,1,1.674.695c.34.313.445.584.375.639Z" transform="translate(-180.852 -111.408)" fill="#263238"/>
              <path id="Path_25033" data-name="Path 25033" d="M208.182,141.485a7.9,7.9,0,0,1,1.945-.313c.306-.028.6-.083.653-.292a1.586,1.586,0,0,0-.188-.91c-.271-.743-.563-1.521-.861-2.334a40,40,0,0,1-1.917-6.107,40.538,40.538,0,0,1,2.4,5.933c.285.82.563,1.6.82,2.348a1.78,1.78,0,0,1,.139,1.2.753.753,0,0,1-.507.438,2.118,2.118,0,0,1-.521.063,7.737,7.737,0,0,1-1.966-.035Z" transform="translate(-184.269 -111.834)" fill="#263238"/>
              <path id="Path_25034" data-name="Path 25034" d="M203.188,146.957c.195-.007.174,1.285,1.264,2.223s2.473.82,2.48,1c.014.083-.313.243-.9.25a3.227,3.227,0,0,1-2.07-.764,2.812,2.812,0,0,1-.98-1.862c-.042-.542.111-.861.2-.855Z" transform="translate(-182.798 -116.541)" fill="#263238"/>
              <path id="Path_25035" data-name="Path 25035" d="M200.425,125c-.153.313-1.32.035-2.73.063-1.41,0-2.577.292-2.73-.014-.069-.146.16-.431.646-.695a4.543,4.543,0,0,1,2.077-.5,4.631,4.631,0,0,1,2.084.459C200.266,124.566,200.495,124.843,200.425,125Z" transform="translate(-180.347 -109.49)" fill="#e0e0e0"/>
              <path id="Path_25036" data-name="Path 25036" d="M217.056,127.05c-.215.264-1.028-.028-2.022-.056-.987-.063-1.827.153-2.015-.139-.083-.139.056-.41.424-.66a2.824,2.824,0,0,1,1.653-.417,2.853,2.853,0,0,1,1.6.57c.347.285.452.563.361.695Z" transform="translate(-185.855 -110.078)" fill="#e0e0e0"/>
              <path id="Path_25037" data-name="Path 25037" d="M200.843,106.817c-2.7-1.181-5.5-.709-8.434-.389a13.336,13.336,0,0,0-6.294,2.244,11.946,11.946,0,0,0-4.9,9.15,33.982,33.982,0,0,0,.771,10.5l.292-.056a5.1,5.1,0,0,0-.139,2.7,1.738,1.738,0,0,0,2.1,1.244c.993-.4,1.07-1.737,1.021-2.8a75.429,75.429,0,0,1,.347-10.775c.25-2.675,1.9-5.905,4.029-7.1,4.8-2.661,8.351.014,9.963.653,2.654-2.119,5.5-.75,7,1.223-.472-2.911-3.05-5.419-5.752-6.593Z" transform="translate(-176.117 -104.059)" fill="#e0e0e0"/>
              <path id="Path_25038" data-name="Path 25038" d="M178.89,116.179c-.007.167.306.368.945.465a6.27,6.27,0,0,0,2.661-.3,14.361,14.361,0,0,0,3.453-1.716c1.181-.764,2.355-1.653,3.613-2.369a7.948,7.948,0,0,1,3.592-1.167,7.539,7.539,0,0,1,3.071.521c1.73.667,2.605,1.619,2.918,1.4.069-.049.09-.16.063-.34a2.183,2.183,0,0,0-.264-.688,5.817,5.817,0,0,0-1.869-1.945,7.667,7.667,0,0,0-3.9-1.278,7.858,7.858,0,0,0-2.48.285,10.947,10.947,0,0,0-2.369,1.007,29.6,29.6,0,0,0-3.717,2.668,22.807,22.807,0,0,1-2.8,1.966,13.932,13.932,0,0,1-2.056.966c-.514.195-.841.327-.855.507Z" transform="translate(-175.444 -104.882)" fill="#fff"/>
              <path id="Path_25039" data-name="Path 25039" d="M178.61,124.773a3.526,3.526,0,0,0,1.007.215,6.54,6.54,0,0,0,2.473-.3,6.433,6.433,0,0,0,2.181-1.216,2.7,2.7,0,0,0,.688-.764,8.954,8.954,0,0,0-.8.625,7.488,7.488,0,0,1-2.147,1.112,7.645,7.645,0,0,1-2.39.361A9.892,9.892,0,0,0,178.61,124.773Z" transform="translate(-175.359 -109.141)" fill="#fff"/>
              <path id="Path_25040" data-name="Path 25040" d="M175.247,130.7a3.141,3.141,0,0,0,.4-.1c.257-.076.618-.2,1.063-.382a16.754,16.754,0,0,0,6.044-4.28,10.158,10.158,0,0,0,.716-.875,1.281,1.281,0,0,0,.222-.347,14.164,14.164,0,0,0-1.07,1.1,21.089,21.089,0,0,1-2.8,2.4,20.807,20.807,0,0,1-3.189,1.848c-.855.4-1.41.6-1.4.639Z" transform="translate(-174.33 -109.755)" fill="#fff"/>
              <path id="Path_25041" data-name="Path 25041" d="M201.89,105.608c-.014.042.452.195,1.153.528a7.2,7.2,0,0,1,2.418,1.751,4.318,4.318,0,0,1,1.028,2.737,6.089,6.089,0,0,1-.2,1.23.9.9,0,0,0,.174-.3,2.8,2.8,0,0,0,.208-.924,4.191,4.191,0,0,0-1.014-2.9,6.5,6.5,0,0,0-2.543-1.758A4.285,4.285,0,0,0,201.89,105.608Z" transform="translate(-182.465 -103.92)" fill="#fff"/>
              <path id="Path_25042" data-name="Path 25042" d="M206.029,103.18c-.028.035.4.292.952.855a5.512,5.512,0,0,1,1.257,5.655c-.25.743-.535,1.153-.493,1.181.014.007.1-.083.222-.271a4.855,4.855,0,0,0,.438-.848,5.307,5.307,0,0,0-1.3-5.836,4.755,4.755,0,0,0-.757-.584c-.195-.118-.313-.16-.32-.146Z" transform="translate(-183.728 -103.18)" fill="#fff"/>
              <path id="Path_25043" data-name="Path 25043" d="M182.76,138.805a2.894,2.894,0,0,0,1.758-.584,2.836,2.836,0,0,0,1.237-1.383,15.4,15.4,0,0,1-1.376,1.167,17.49,17.49,0,0,1-1.619.792Z" transform="translate(-176.625 -113.454)" fill="#fff"/>
              <path id="Path_25044" data-name="Path 25044" d="M182.3,140.335a3.05,3.05,0,0,0,1.973-.417,3.1,3.1,0,0,0,1.466-1.389,11.74,11.74,0,0,1-1.577,1.167,10.856,10.856,0,0,1-1.855.639Z" transform="translate(-176.485 -113.97)" fill="#fff"/>
              <path id="Path_25045" data-name="Path 25045" d="M218.68,116.594a1.922,1.922,0,0,0,.7-.243,3.527,3.527,0,0,0,1.751-3,1.4,1.4,0,0,0-.132-.729,5.646,5.646,0,0,0-.042.723,3.943,3.943,0,0,1-.514,1.612A4.069,4.069,0,0,1,219.3,116.2c-.361.25-.618.354-.6.4Z" transform="translate(-187.59 -106.062)" fill="#fff"/>
              <path id="Path_25046" data-name="Path 25046" d="M217.538,114.63a6.663,6.663,0,0,0,1.938-3.39c-.069-.028-.4.785-.931,1.716S217.483,114.581,217.538,114.63Z" transform="translate(-187.241 -105.64)" fill="#fff"/>
              <path id="Path_25047" data-name="Path 25047" d="M191.739,133.119c-.028.049.32.327.834.528a1.731,1.731,0,0,0,.973.181c.014-.063-.4-.181-.9-.375a3.659,3.659,0,0,0-.91-.327Z" transform="translate(-179.366 -112.318)" fill="#df947f"/>
              <path id="Path_25048" data-name="Path 25048" d="M190.53,134.722a3.239,3.239,0,0,0,1.16.035,3.153,3.153,0,0,0,1.146-.181,3.442,3.442,0,0,0-1.16-.035A3.154,3.154,0,0,0,190.53,134.722Z" transform="translate(-178.997 -112.748)" fill="#df947f"/>
              <path id="Path_25049" data-name="Path 25049" d="M219.61,135.937c0,.056.285.111.639.111s.639-.042.639-.1-.285-.111-.639-.111S219.61,135.882,219.61,135.937Z" transform="translate(-187.874 -113.15)" fill="#df947f"/>
              <path id="Path_25050" data-name="Path 25050" d="M220.039,134.855c.028.049.271-.042.542-.2s.465-.333.438-.389-.271.042-.542.2S220.011,134.8,220.039,134.855Z" transform="translate(-188.004 -112.665)" fill="#df947f"/>
              <path id="Path_25051" data-name="Path 25051" d="M202.384,119.888s.375.118.952.347,1.355.618,2.237,1a6.21,6.21,0,0,0,2.411.57,3.186,3.186,0,0,0,.75-.09.763.763,0,0,0,.257-.1c-.007-.035-.389.076-1.007.042a6.967,6.967,0,0,1-2.334-.611c-.875-.375-1.66-.764-2.272-.952a3.127,3.127,0,0,0-1.007-.208Z" transform="translate(-182.612 -108.279)" fill="#df947f"/>
              <path id="Path_25052" data-name="Path 25052" d="M204.66,119.637a7.011,7.011,0,0,0,4.849.709,23.878,23.878,0,0,1-2.459-.125A23.365,23.365,0,0,1,204.66,119.637Z" transform="translate(-183.31 -108.202)" fill="#df947f"/>
              <path id="Path_25053" data-name="Path 25053" d="M201.127,146.992c.056.028.236-.431.743-.632a2.144,2.144,0,0,1,.973-.049c.014-.021-.076-.111-.271-.174a1.209,1.209,0,0,0-.778.028,1.172,1.172,0,0,0-.584.514c-.1.181-.1.306-.076.313Z" transform="translate(-182.23 -116.278)" fill="#df947f"/>
              <path id="Path_25054" data-name="Path 25054" d="M199.663,146.511a2.389,2.389,0,0,1,.681-.806,2.415,2.415,0,0,1,1.014-.292c.007-.021-.111-.09-.327-.1a1.362,1.362,0,0,0-.8.222,1.336,1.336,0,0,0-.528.639c-.076.2-.063.34-.035.34Z" transform="translate(-181.781 -116.04)" fill="#df947f"/>
            </g>
            <path id="Path_25055" data-name="Path 25055" d="M200.707,137.925c.028.035-.111.208-.417.375a2.651,2.651,0,0,1-1.313.313,2.752,2.752,0,0,1-1.306-.361c-.3-.181-.431-.361-.4-.4a7.567,7.567,0,0,0,1.716.4,8.217,8.217,0,0,0,1.73-.327Z" transform="translate(-181.053 -113.762)" fill="#df947f"/>
            <path id="Path_25056" data-name="Path 25056" d="M217.559,137.593c.083.049-.368.667-1.237.8s-1.494-.292-1.424-.368c.049-.1.639.139,1.369.007.736-.111,1.223-.514,1.292-.445Z" transform="translate(-186.434 -113.681)" fill="#df947f"/>
            <path id="Path_25057" data-name="Path 25057" d="M200.505,129.928a9.28,9.28,0,0,0-2.487-.438,9.42,9.42,0,0,0-2.459.6c-.028-.035.188-.257.611-.486a4.223,4.223,0,0,1,1.827-.472,4.3,4.3,0,0,1,1.855.354c.445.2.667.41.646.445Z" transform="translate(-180.532 -111.101)" fill="#df947f"/>
            <path id="Path_25058" data-name="Path 25058" d="M215.916,130.278A9.287,9.287,0,0,0,214.1,130a9.386,9.386,0,0,0-1.786.4,2.651,2.651,0,0,1,3.592-.125Z" transform="translate(-185.647 -111.256)" fill="#df947f"/>
          </g>
          <g id="Group_51483" data-name="Group 51483" transform="translate(5.329 45.825)" opacity="0.3">
            <path id="Path_25059" data-name="Path 25059" d="M197.975,175.087a7.592,7.592,0,0,0-.757,3.286c-2.939-.1-5.433-2.126-7.545-4.175s-5.231-4.3-8.073-5.058a14.265,14.265,0,0,1,5.912,4.113c1.64,1.709,3.092,3.606,4.87,5.169a10.173,10.173,0,0,0,6.357,2.821,18.5,18.5,0,0,0-.764-6.162Z" transform="translate(-181.6 -169.14)"/>
          </g>
          <g id="Group_51484" data-name="Group 51484" transform="translate(23.01 65.785)" opacity="0.4">
            <path id="Path_25060" data-name="Path 25060" d="M207.654,197.87c.2.486-.6,9.323-.6,9.323l8.358,7.489.271-10.539Z" transform="translate(-207.05 -197.87)" fill="#fff"/>
          </g>
          <g id="Group_51485" data-name="Group 51485" transform="translate(31.569 62.839)" opacity="0.4">
            <path id="Path_25061" data-name="Path 25061" d="M220.614,193.63c.167.5-1.244,9.268-1.244,9.268l7.823,7.976,1-10.5-7.573-6.746Z" transform="translate(-219.37 -193.63)" fill="#fff"/>
          </g>
          <g id="Group_51486" data-name="Group 51486" transform="translate(40.385 60.63)" opacity="0.4">
            <path id="Path_25062" data-name="Path 25062" d="M234.762,190.45c.083.514-2.7,8.99-2.7,8.99l6.468,8.976,2.654-10.24Z" transform="translate(-232.06 -190.45)" fill="#fff"/>
          </g>
          <g id="Group_51487" data-name="Group 51487" transform="translate(43.491 56.114)" opacity="0.4">
            <path id="Path_25063" data-name="Path 25063" d="M245.061,200.262l-2.689-10.838s-5.551-5.044-5.843-5.475l1.556,5.224Z" transform="translate(-236.53 -183.95)" fill="#fff"/>
          </g>
          <path id="Path_25064" data-name="Path 25064" d="M229.03,180.757a4.128,4.128,0,0,1,.361.271c.222.195.577.459.98.848a37.457,37.457,0,0,1,3.307,3.439,61.707,61.707,0,0,1,4.245,5.662c1.48,2.216,3.008,4.71,4.516,7.385,2.98,5.342,5.683,10.171,7.663,13.721.952,1.737,1.723,3.154,2.286,4.175.25.472.452.848.6,1.146a2.014,2.014,0,0,1,.188.41,2.274,2.274,0,0,1-.25-.375c-.174-.285-.389-.653-.667-1.112-.584-1.014-1.4-2.411-2.383-4.12-2-3.529-4.731-8.344-7.753-13.665-1.508-2.668-3.022-5.162-4.481-7.385a67.856,67.856,0,0,0-4.161-5.683,44.042,44.042,0,0,0-3.2-3.5c-.389-.4-.722-.688-.931-.9a2.426,2.426,0,0,1-.313-.327Z" transform="translate(-190.75 -126.859)" fill="#263238"/>
        </g>
        <g id="Group_51494" data-name="Group 51494" transform="translate(21.161 50.27)">
          <g id="Group_51493" data-name="Group 51493">
            <path id="Path_25065" data-name="Path 25065" d="M164.3,175.936a10.989,10.989,0,0,0-4.412,9.6c.542,6.232,5.739,16,9.073,19.328s19.856,24.6,19.856,24.6l12.373-15.34-16.931-27.484s-11.741-13.547-19.96-10.713Z" transform="translate(-159.849 -175.539)" fill="#005f9a"/>
            <path id="Path_25066" data-name="Path 25066" d="M200.3,240.672s5.03,6.294,9.594,7.079,45.457-3.724,45.457-3.724l.806-9.428-43.115-6.35S198.1,232.814,200.3,240.672Z" transform="translate(-172.13 -191.63)" fill="#ffc4af"/>
            <path id="Path_25067" data-name="Path 25067" d="M286.714,238.442c-.764-.764-8.719-1.285-8.719-1.285l-1.785-.257-1.32,8.309,8.219,4.523-1.584,4.731H280c-1.521,0-1.681,1.07-1.535,2.286s6.412.764,6.412.764l5.7-9.268s-3.106-9.046-3.87-9.81Z" transform="translate(-194.967 -194.27)" fill="#ffc4af"/>
            <path id="Path_25068" data-name="Path 25068" d="M207.964,221.434a17.032,17.032,0,0,0-2.209-1.48,13.017,13.017,0,0,0-6.19-1.327,28.562,28.562,0,0,0-6.343,1,21.854,21.854,0,0,1-2.612.618,2.962,2.962,0,0,1,.667-.271c.438-.153,1.077-.361,1.876-.6a25.123,25.123,0,0,1,6.405-1.119,12.456,12.456,0,0,1,6.315,1.466,8.293,8.293,0,0,1,1.6,1.167c.34.327.5.528.479.542Z" transform="translate(-169.239 -188.579)" fill="#263238"/>
            <path id="Path_25069" data-name="Path 25069" d="M277.175,245.258a.809.809,0,0,1-.424.139,2.757,2.757,0,0,1-1.195-.222,4.63,4.63,0,0,0-1.619-.445,1.111,1.111,0,0,0-.82.333,4.065,4.065,0,0,1-.431.375,1.116,1.116,0,0,1-.625.2,4.563,4.563,0,0,1-1.132-.243,2.1,2.1,0,0,0-.952-.028,9.03,9.03,0,0,1-1.744.32,1.672,1.672,0,0,1-1.16-.4c-.215-.215-.229-.389-.215-.4s.09.132.306.285a1.635,1.635,0,0,0,1.063.25,11.765,11.765,0,0,0,1.681-.4,2.35,2.35,0,0,1,1.1.014,4.653,4.653,0,0,0,1.035.229c.327.007.549-.215.827-.479a1.476,1.476,0,0,1,1.056-.4,4.458,4.458,0,0,1,1.716.542,3.284,3.284,0,0,0,1.091.32c.271.021.417-.028.431,0Z" transform="translate(-192.514 -196.556)" fill="#df947f"/>
            <path id="Path_25070" data-name="Path 25070" d="M278.414,242.7a.583.583,0,0,1-.431.236,2.1,2.1,0,0,1-1.278-.327,2.977,2.977,0,0,0-.785-.306,1.551,1.551,0,0,0-.9.181,2.227,2.227,0,0,1-1.195.118,11.445,11.445,0,0,1-1.188-.306,2.524,2.524,0,0,0-1.118-.111,2.459,2.459,0,0,0-.938.459,2.748,2.748,0,0,1-.959.472,1.939,1.939,0,0,1-.945-.042,3.641,3.641,0,0,1-1.16-.618c-.243-.188-.368-.306-.354-.327s.167.056.431.208a4.8,4.8,0,0,0,1.153.486,1.692,1.692,0,0,0,.813,0,2.661,2.661,0,0,0,.841-.459,2.682,2.682,0,0,1,1.063-.528,2.9,2.9,0,0,1,1.271.111,3.344,3.344,0,0,0,2.175.222,1.79,1.79,0,0,1,1.077-.16,3,3,0,0,1,.848.375,2.105,2.105,0,0,0,1.146.41c.285,0,.424-.125.445-.1Z" transform="translate(-192.607 -195.768)" fill="#df947f"/>
            <g id="Group_51489" data-name="Group 51489" transform="translate(22.276 31.474)" opacity="0.3">
              <path id="Path_25071" data-name="Path 25071" d="M193.016,223.015c-.6.333-1.257.91-1.07,1.57a1.124,1.124,0,0,0,1.181.695,3.62,3.62,0,0,0,1.383-.507,24.49,24.49,0,0,1,13.457-2.64h.028a17.351,17.351,0,0,0-14.972.882Z" transform="translate(-191.913 -220.842)"/>
            </g>
            <g id="Group_51490" data-name="Group 51490" transform="translate(5.774 17.765)" opacity="0.4">
              <path id="Path_25072" data-name="Path 25072" d="M168.16,201.11c.292.438,1.48,9.226,1.48,9.226l9.268,5.607L176.865,205.6l-8.7-4.488Z" transform="translate(-168.16 -201.11)" fill="#fff"/>
            </g>
            <g id="Group_51491" data-name="Group 51491" transform="translate(13.117 13.111)" opacity="0.4">
              <path id="Path_25073" data-name="Path 25073" d="M178.73,194.41c.292.438,1.48,9.226,1.48,9.226l9.268,5.607L187.435,198.9l-8.7-4.488Z" transform="translate(-178.73 -194.41)" fill="#fff"/>
            </g>
            <g id="Group_51492" data-name="Group 51492" transform="translate(20.363 8.345)" opacity="0.4">
              <path id="Path_25074" data-name="Path 25074" d="M200.255,202.181l-9.615-5.405s-1.188-8.788-1.48-9.226l4.245,3.418,6.85,11.206Z" transform="translate(-189.16 -187.55)" fill="#fff"/>
            </g>
            <path id="Path_25075" data-name="Path 25075" d="M201,206.7a3.686,3.686,0,0,1-.292-.278c-.174-.195-.452-.465-.771-.855a33.262,33.262,0,0,1-2.515-3.4c-.987-1.494-2.049-3.335-3.189-5.4s-2.369-4.342-3.814-6.635a33.468,33.468,0,0,0-4.766-5.933,20.313,20.313,0,0,0-5.009-3.633,14.753,14.753,0,0,0-3.953-1.355c-.973-.181-1.528-.215-1.521-.25a1.485,1.485,0,0,1,.4,0,9.191,9.191,0,0,1,1.146.111,13.906,13.906,0,0,1,4.036,1.264,20.045,20.045,0,0,1,5.127,3.627,32.688,32.688,0,0,1,4.842,5.975c1.459,2.307,2.675,4.6,3.8,6.669s2.154,3.918,3.112,5.419a41.037,41.037,0,0,0,2.411,3.446c.618.778.973,1.2.952,1.223Z" transform="translate(-164.526 -176.582)" fill="#263238"/>
            <path id="Path_25076" data-name="Path 25076" d="M252.8,257.046l-56.239-.146-1.334-5.919,57.573-.021A3.042,3.042,0,0,1,255.846,254h0A3.042,3.042,0,0,1,252.8,257.046Z" transform="translate(-170.649 -198.562)" fill="#455a64"/>
          </g>
          <path id="Path_25077" data-name="Path 25077" d="M204.1,222.911a12.525,12.525,0,0,1,2.2-.452,16.627,16.627,0,0,1,5.433-.042,8.335,8.335,0,0,1,4.738,2.605,5.355,5.355,0,0,1,.882,1.4,1.643,1.643,0,0,1,.174.584,10.263,10.263,0,0,0-1.251-1.813,8.537,8.537,0,0,0-4.62-2.418,18.626,18.626,0,0,0-5.329-.063,16,16,0,0,1-2.23.195Z" transform="translate(-173.354 -189.785)" fill="#263238"/>
        </g>
      </g>
    </g>
  </g>
</svg>
